<svg width="65" height="78" viewBox="0 0 65 78" fill="none" xmlns="http://www.w3.org/2000/svg">
<path d="M25.0596 15.1504L27.2958 21.3604C29.7798 28.2527 35.2073 33.6802 42.0996 36.1642L48.3096 38.4004C48.8694 38.6037 48.8694 39.3973 48.3096 39.5978L42.0996 41.834C35.2073 44.318 29.7798 49.7455 27.2958 56.6378L25.0596 62.8478C24.8563 63.4076 24.0627 63.4076 23.8622 62.8478L21.626 56.6378C19.142 49.7455 13.7145 44.318 6.82221 41.834L0.612186 39.5978C0.0524484 39.3946 0.0524484 38.6009 0.612186 38.4004L6.82221 36.1642C13.7145 33.6802 19.142 28.2527 21.626 21.3604L23.8622 15.1504C24.0627 14.5879 24.8563 14.5879 25.0596 15.1504Z" fill="#AA1439"/>
<path d="M53.0133 0.226842L54.1467 3.37084C55.4054 6.86015 58.154 9.60871 61.6433 10.8674L64.7873 12.0008C65.0713 12.1039 65.0713 12.5049 64.7873 12.6079L61.6433 13.7413C58.154 15 55.4054 17.7486 54.1467 21.2379L53.0133 24.3819C52.9102 24.6659 52.5092 24.6659 52.4062 24.3819L51.2728 21.2379C50.0141 17.7486 47.2655 15 43.7762 13.7413L40.6322 12.6079C40.3482 12.5049 40.3482 12.1039 40.6322 12.0008L43.7762 10.8674C47.2655 9.60871 50.0141 6.86015 51.2728 3.37084L52.4062 0.226842C52.5092 -0.0599889 52.913 -0.0599889 53.0133 0.226842Z" fill="#AA1439" fill-opacity="0.5"/>
<path d="M53.0133 53.6193L54.1467 56.7633C55.4054 60.2526 58.154 63.0012 61.6433 64.2599L64.7873 65.3933C65.0713 65.4963 65.0713 65.8973 64.7873 66.0003L61.6433 67.1337C58.154 68.3925 55.4054 71.141 54.1467 74.6303L53.0133 77.7743C52.9102 78.0584 52.5092 78.0584 52.4062 77.7743L51.2728 74.6303C50.0141 71.141 47.2655 68.3925 43.7762 67.1337L40.6322 66.0003C40.3482 65.8973 40.3482 65.4963 40.6322 65.3933L43.7762 64.2599C47.2655 63.0012 50.0141 60.2526 51.2728 56.7633L52.4062 53.6193C52.5092 53.3352 52.913 53.3352 53.0133 53.6193Z" fill="#AA1439" fill-opacity="0.5"/>
</svg>
