<svg width="512" height="513" viewBox="0 0 512 513" fill="none" xmlns="http://www.w3.org/2000/svg">
<g clip-path="url(#clip0_2_214)">
<path d="M210.875 0.5H240.875V78.25H210.875V0.5Z" fill="#AA1439"/>
<path d="M271.125 0.5H301.125V78.25H271.125V0.5Z" fill="#AA1439"/>
<path d="M210.875 434.75H240.875V512.5H210.875V434.75Z" fill="#AA1439"/>
<path d="M271.125 434.75H301.125V512.5H271.125V434.75Z" fill="#AA1439"/>
<path d="M436.75 241.5H512V271.5H436.75V241.5Z" fill="#AA1439"/>
<path d="M0 241.5H75.25V271.5H0V241.5Z" fill="#AA1439"/>
<path d="M0 151.125H99.437V181.125H0V151.125Z" fill="#AA1439"/>
<path d="M0 331.875H99.437V361.875H0V331.875Z" fill="#AA1439"/>
<path d="M412.563 151.125H512V181.125H412.563V151.125Z" fill="#AA1439"/>
<path d="M412.563 331.875H512V361.875H412.563V331.875Z" fill="#AA1439"/>
<path d="M160.786 120.108L119.295 47.5H44.6211V17.5H136.705L186.833 105.224L160.786 120.108Z" fill="#AA1439"/>
<path d="M351.214 120.108L325.167 105.224L375.295 17.5H467.379V47.5H392.705L351.214 120.108Z" fill="#AA1439"/>
<path d="M32 64.5C49.6731 64.5 64 50.1731 64 32.5C64 14.8269 49.6731 0.5 32 0.5C14.3269 0.5 0 14.8269 0 32.5C0 50.1731 14.3269 64.5 32 64.5Z" fill="#AA1439"/>
<path d="M136.705 495.5H44.6211V465.5H119.295L160.786 392.892L186.833 407.776L136.705 495.5Z" fill="#AA1439"/>
<path d="M467.379 495.5H375.295L325.167 407.776L351.214 392.892L392.705 465.5H467.379V495.5Z" fill="#AA1439"/>
<path d="M480 64.5C497.673 64.5 512 50.1731 512 32.5C512 14.8269 497.673 0.5 480 0.5C462.327 0.5 448 14.8269 448 32.5C448 50.1731 462.327 64.5 480 64.5Z" fill="#AA1439"/>
<path d="M32 512.5C49.6731 512.5 64 498.173 64 480.5C64 462.827 49.6731 448.5 32 448.5C14.3269 448.5 0 462.827 0 480.5C0 498.173 14.3269 512.5 32 512.5Z" fill="#AA1439"/>
<path d="M256 448.5C362.039 448.5 448 362.539 448 256.5C448 150.461 362.039 64.5 256 64.5C149.961 64.5 64 150.461 64 256.5C64 362.539 149.961 448.5 256 448.5Z" fill="#ECF2FF"/>
<path d="M448 256.5C448 362.54 362.04 448.5 256 448.5V64.5C362.04 64.5 448 150.46 448 256.5Z" fill="#DAE6FE"/>
<path d="M286.1 196.26H241V316.74H271V286.56H286.1C311 286.56 331.25 266.3 331.25 241.41C331.25 216.51 311 196.26 286.1 196.26ZM286.1 256.56H271V226.26H286.1C294.45 226.26 301.25 233.05 301.25 241.41C301.25 249.76 294.45 256.56 286.1 256.56Z" fill="#AA1439"/>
<path d="M286.1 196.26H256V316.74H271V286.56H286.1C311 286.56 331.25 266.3 331.25 241.41C331.25 216.51 311 196.26 286.1 196.26ZM286.1 256.56H271V226.26H286.1C294.45 226.26 301.25 233.05 301.25 241.41C301.25 249.76 294.45 256.56 286.1 256.56Z" fill="#AA1439"/>
<path d="M171.625 196.257C146.743 196.257 126.5 216.5 126.5 241.382V316.743H156.5V286.556H186.75V316.749H216.75V241.381C216.75 216.5 196.507 196.257 171.625 196.257ZM156.5 256.557V241.382C156.5 233.042 163.285 226.257 171.625 226.257C179.965 226.257 186.75 233.042 186.75 241.382V256.557H156.5Z" fill="#AA1439"/>
<path d="M350.859 196.25H380.859V316.75H350.859V196.25Z" fill="#AA1439"/>
<path d="M480 512.5C497.673 512.5 512 498.173 512 480.5C512 462.827 497.673 448.5 480 448.5C462.327 448.5 448 462.827 448 480.5C448 498.173 462.327 512.5 480 512.5Z" fill="#AA1439"/>
</g>
<defs>
<clipPath id="clip0_2_214">
<rect width="512" height="512" fill="white" transform="translate(0 0.5)"/>
</clipPath>
</defs>
</svg>
