<svg width="78" height="78" viewBox="0 0 78 78" fill="none" xmlns="http://www.w3.org/2000/svg">
<path d="M41.7857 0H8.35714C3.7416 0 0 3.7416 0 8.35714V69.6429C0 74.2584 3.7416 78 8.35714 78H41.7857C46.4013 78 50.1429 74.2584 50.1429 69.6429V8.35714C50.1429 3.7416 46.4013 0 41.7857 0ZM47.3571 68.25C47.3571 72.0899 44.2341 75.2143 40.3929 75.2143H9.75C5.91012 75.2143 2.78571 72.0899 2.78571 68.25V9.75C2.78571 5.91012 5.91012 2.78571 9.75 2.78571H40.3929C44.2341 2.78571 47.3571 5.91012 47.3571 9.75V68.25Z" fill="#AA1439" fill-opacity="0.5"/>
<path d="M40.3925 5.57031H30.6425C30.6425 8.64728 28.148 11.1417 25.071 11.1417C21.9941 11.1417 19.4996 8.64728 19.4996 5.57031H9.74962C7.44542 5.57031 5.57104 7.44468 5.57104 9.74888V68.2489C5.57104 70.5531 7.44542 72.4275 9.74962 72.4275H40.3925C42.6967 72.4275 44.571 70.5531 44.571 68.2489V9.74888C44.571 7.44468 42.6967 5.57031 40.3925 5.57031ZM21.8093 47.7002C22.3887 48.2075 22.4472 49.0876 21.9412 49.6657C21.6651 49.9812 21.2801 50.1417 20.8925 50.1417C20.566 50.1417 20.2396 50.0288 19.9757 49.7976L8.83283 40.0476C8.52951 39.7824 8.35676 39.4001 8.35676 38.9989C8.35676 38.5976 8.52951 38.2154 8.83283 37.9502L19.9757 28.2002C20.5551 27.6928 21.4338 27.7486 21.9412 28.3321C22.4472 28.9102 22.3887 29.7902 21.8093 30.2976L11.8647 38.9989L21.8093 47.7002ZM41.3093 40.0476L30.1664 49.7976C29.9025 50.0288 29.5761 50.1417 29.2496 50.1417C28.862 50.1417 28.477 49.9812 28.2009 49.6657C27.6949 49.0876 27.7534 48.2075 28.3328 47.7002L38.2773 38.9989L28.3328 30.2976C27.7534 29.7902 27.6949 28.9102 28.2009 28.3321C28.7083 27.7486 29.5869 27.6928 30.1664 28.2002L41.3093 37.9502C41.6126 38.2154 41.7853 38.5976 41.7853 38.9989C41.7853 39.4001 41.6126 39.7824 41.3093 40.0476Z" fill="#AA1439"/>
<path d="M76.583 44.2841L72.6575 42.0697C72.8098 41.0332 72.886 40.0076 72.886 38.9997C72.886 37.9918 72.8098 36.9662 72.6575 35.9297L76.583 33.7153C77.2359 33.3467 77.712 32.7319 77.9052 32.0096C78.0983 31.286 77.9949 30.5161 77.6141 29.8713L71.9121 20.222C71.1422 18.9189 69.4719 18.4673 68.1443 19.2127L64.1507 21.4666C62.4668 20.1717 60.6006 19.1134 58.631 18.3327V13.9283C58.631 12.3899 57.385 11.1426 55.8452 11.1426H52.929V27.8569C59.0831 27.8569 64.0718 32.8456 64.0718 38.9997C64.0718 45.1538 59.0831 50.1426 52.929 50.1426V66.8569H55.8452C57.385 66.8569 58.631 65.6096 58.631 64.0712V59.6681C60.6006 58.886 62.4668 57.8264 64.1507 56.5329L68.1443 58.7867C69.4719 59.5335 71.1422 59.0819 71.9121 57.7775L77.6141 48.1281C77.9949 47.4834 78.0983 46.7135 77.9052 45.9899C77.712 45.2676 77.2359 44.6528 76.583 44.2841Z" fill="#AA1439" fill-opacity="0.5"/>
</svg>
