<svg width="512" height="512" viewBox="0 0 512 512" fill="none" xmlns="http://www.w3.org/2000/svg">
<path fill-rule="evenodd" clip-rule="evenodd" d="M245.053 56.761H396.702C424.666 56.761 447.542 79.637 447.542 107.601V429.56C447.542 457.514 424.665 480.391 396.702 480.391H245.053C217.089 480.391 194.213 457.515 194.213 429.56V107.601C194.213 79.637 217.09 56.761 245.053 56.761Z" fill="white"/>
<path fill-rule="evenodd" clip-rule="evenodd" d="M245.053 62.4449C220.147 62.4449 199.898 82.7049 199.898 107.601V391.599H441.857V107.601C441.857 82.7049 421.607 62.4449 396.702 62.4449H245.053ZM396.702 486.075H245.053C213.884 486.075 188.528 460.729 188.528 429.56V397.284V107.601C188.528 76.4319 213.884 51.0759 245.053 51.0759H396.702C427.87 51.0759 453.227 76.4319 453.227 107.601V397.284V429.56C453.227 460.729 427.87 486.075 396.702 486.075Z" fill="#AA1439"/>
<path fill-rule="evenodd" clip-rule="evenodd" d="M245.053 62.445C232.912 62.445 221.88 67.261 213.758 75.079C202.923 83.336 195.919 96.37 195.919 111.011V395.009H441.857V107.601C441.857 82.705 421.607 62.445 396.702 62.445H245.053ZM206.374 66.422C215.959 58.946 228.005 54.486 241.075 54.486H392.724C423.893 54.486 449.249 79.843 449.249 111.011V400.694V432.97C449.249 449.188 442.382 463.826 431.406 474.141C421.821 481.616 409.774 486.075 396.703 486.075H245.053C213.884 486.075 188.528 460.729 188.528 429.56V397.284V107.601C188.528 91.382 195.396 76.739 206.374 66.422Z" fill="#AA1439"/>
<path fill-rule="evenodd" clip-rule="evenodd" d="M341.147 96.476H300.608C297.461 96.476 294.923 93.928 294.923 90.791C294.923 87.654 297.461 85.106 300.608 85.106H341.147C344.294 85.106 346.832 87.654 346.832 90.791C346.832 93.928 344.293 96.476 341.147 96.476Z" fill="#AA1439"/>
<path fill-rule="evenodd" clip-rule="evenodd" d="M341.147 96.4759H300.608C297.461 96.4759 294.923 93.9279 294.923 90.7909C294.923 90.0239 295.075 89.2929 295.35 88.6249C296.322 87.8459 297.557 87.3789 298.903 87.3789H339.442C342.588 87.3789 345.127 89.9269 345.127 93.0639C345.127 93.8309 344.975 94.5619 344.7 95.2299C343.727 96.0089 342.493 96.4759 341.147 96.4759Z" fill="#AA1439"/>
<path fill-rule="evenodd" clip-rule="evenodd" d="M341.147 443.351H300.608C297.461 443.351 294.923 440.822 294.923 437.676C294.923 434.53 297.461 431.991 300.608 431.991H341.147C344.294 431.991 346.832 434.529 346.832 437.676C346.832 440.822 344.293 443.351 341.147 443.351Z" fill="white"/>
<path fill-rule="evenodd" clip-rule="evenodd" d="M341.147 443.351H300.608C297.461 443.351 294.923 440.822 294.923 437.676C294.923 437.165 294.991 436.669 295.116 436.198C296.155 435.053 297.656 434.335 299.329 434.335H339.868C343.014 434.335 345.553 436.873 345.553 440.02C345.553 440.53 345.486 441.023 345.361 441.492C344.322 442.635 342.821 443.351 341.147 443.351Z" fill="white"/>
<path fill-rule="evenodd" clip-rule="evenodd" d="M371.318 348.668H339.76C331.138 348.668 324.154 341.658 324.154 333.062V301.522C324.154 292.926 331.138 285.915 339.76 285.915H371.318C379.94 285.915 386.925 292.925 386.925 301.522V333.062C386.925 341.659 379.941 348.668 371.318 348.668Z" fill="#AA1439"/>
<path fill-rule="evenodd" clip-rule="evenodd" d="M355.54 276.379C339.934 276.379 327.259 263.661 327.259 248.046C327.259 232.422 339.934 219.713 355.54 219.713C371.147 219.713 383.907 232.422 383.907 248.046C383.907 263.661 371.146 276.379 355.54 276.379Z" fill="#AA1439"/>
<path fill-rule="evenodd" clip-rule="evenodd" d="M306.306 346.022H266.298C262.159 346.022 258.452 343.892 256.382 340.34C254.399 336.779 254.399 332.52 256.382 328.958L276.472 294.253C278.541 290.692 282.163 288.562 286.301 288.562C290.44 288.562 294.061 290.692 296.13 294.253L316.22 328.958C318.203 332.519 318.203 336.778 316.22 340.34C314.152 343.892 310.445 346.022 306.306 346.022Z" fill="#AA1439"/>
<path fill-rule="evenodd" clip-rule="evenodd" d="M302.081 279.414H270.523C261.901 279.414 254.917 272.413 254.917 263.816V232.275C254.917 223.661 261.901 216.669 270.523 216.669H302.081C310.703 216.669 317.687 223.662 317.687 232.275V263.816C317.687 272.413 310.703 279.414 302.081 279.414Z" fill="#AA1439"/>
<path fill-rule="evenodd" clip-rule="evenodd" d="M327.706 291.618C329.944 290.375 332.519 289.666 335.26 289.666H366.818C375.44 289.666 382.425 296.676 382.425 305.272V336.812C382.425 340.567 381.093 344.018 378.873 346.716C376.635 347.959 374.059 348.668 371.318 348.668H339.76C331.138 348.668 324.154 341.658 324.154 333.062V301.522C324.154 297.767 325.487 294.315 327.706 291.618Z" fill="#AA1439"/>
<path fill-rule="evenodd" clip-rule="evenodd" d="M335.326 228.247C339.822 225.227 345.227 223.463 351.04 223.463C366.647 223.463 379.407 236.172 379.407 251.796C379.407 259.476 376.319 266.453 371.325 271.563C366.805 274.602 361.371 276.379 355.539 276.379C339.933 276.379 327.258 263.661 327.258 248.046C327.258 240.348 330.337 233.358 335.326 228.247Z" fill="#AA1439"/>
<path fill-rule="evenodd" clip-rule="evenodd" d="M277.068 293.327C278.513 292.666 280.114 292.312 281.802 292.312C285.941 292.312 289.562 294.442 291.631 298.003L311.721 332.708C313.704 336.269 313.704 340.528 311.721 344.09C311.544 344.394 311.355 344.686 311.155 344.969C309.671 345.654 308.025 346.022 306.305 346.022H266.297C262.158 346.022 258.451 343.892 256.381 340.34C254.398 336.779 254.398 332.52 256.381 328.958L276.471 294.253C276.659 293.932 276.858 293.624 277.068 293.327Z" fill="#AA1439"/>
<path fill-rule="evenodd" clip-rule="evenodd" d="M302.081 279.414H270.523C261.901 279.414 254.917 272.413 254.917 263.816V232.275C254.917 228.516 256.247 225.066 258.463 222.371C260.703 221.128 263.28 220.419 266.024 220.419H297.582C306.204 220.419 313.188 227.412 313.188 236.025V267.565C313.188 271.317 311.857 274.765 309.641 277.46C307.401 278.704 304.824 279.414 302.081 279.414Z" fill="#AA1439"/>
<path fill-rule="evenodd" clip-rule="evenodd" d="M177.279 207.601H108.11C97.178 207.601 88.278 198.701 88.278 187.779C88.278 179.227 85.569 171.953 79.862 165.558C66.222 150.196 58.773 130.432 58.773 109.875C58.773 63.585 96.405 25.924 142.743 25.924C188.985 25.924 226.616 63.584 226.616 109.875C226.616 130.432 219.167 150.196 205.527 165.558C199.819 171.953 197.11 179.227 197.11 187.779C197.11 198.701 188.21 207.601 177.279 207.601Z" fill="#AA1439"/>
<path fill-rule="evenodd" clip-rule="evenodd" d="M177.279 207.601H108.11C97.178 207.601 88.278 198.701 88.278 187.779C88.278 179.227 85.569 171.953 79.862 165.558C66.222 150.196 58.773 130.432 58.773 109.875C58.773 80.31 74.125 54.268 97.29 39.307C108.466 33.796 121.037 30.693 134.327 30.693C180.569 30.693 218.2 68.353 218.2 114.643C218.2 135.2 210.751 154.964 197.111 170.326C191.403 176.72 188.694 183.995 188.694 192.547C188.694 198.182 186.325 203.279 182.53 206.893C180.858 207.354 179.097 207.601 177.279 207.601Z" fill="#AA1439"/>
<path fill-rule="evenodd" clip-rule="evenodd" d="M177.376 226.765H108.013C104.917 226.765 102.402 224.25 102.402 221.154C102.402 218.058 104.917 215.543 108.013 215.543H177.376C180.472 215.543 182.987 218.058 182.987 221.154C182.986 224.25 180.472 226.765 177.376 226.765ZM163.832 265.084H121.557C118.462 265.084 115.946 262.578 115.946 259.483C115.946 256.378 118.461 253.872 121.557 253.872H163.832C166.928 253.872 169.443 256.378 169.443 259.483C169.443 262.578 166.928 265.084 163.832 265.084ZM177.376 245.93H108.013C104.917 245.93 102.402 243.415 102.402 240.319C102.402 237.224 104.917 234.708 108.013 234.708H177.376C180.472 234.708 182.987 237.224 182.987 240.319C182.986 243.415 180.472 245.93 177.376 245.93Z" fill="#AA1439"/>
<path fill-rule="evenodd" clip-rule="evenodd" d="M177.376 226.765H108.013C104.917 226.765 102.402 224.25 102.402 221.154C102.402 220.498 102.515 219.867 102.723 219.282C103.437 218.953 104.231 218.769 105.067 218.769H174.429C177.525 218.769 180.04 221.285 180.04 224.38C180.04 225.036 179.927 225.666 179.719 226.252C179.006 226.581 178.212 226.765 177.376 226.765ZM116.266 257.609C116.98 257.281 117.775 257.097 118.611 257.097H160.886C163.982 257.097 166.497 259.603 166.497 262.708C166.497 263.361 166.384 263.988 166.179 264.571C165.465 264.9 164.669 265.084 163.832 265.084H121.557C118.462 265.084 115.946 262.578 115.946 259.483C115.946 258.825 116.059 258.195 116.266 257.609ZM102.724 238.447C103.437 238.118 104.232 237.934 105.068 237.934H174.43C177.526 237.934 180.041 240.449 180.041 243.545C180.041 244.201 179.927 244.831 179.72 245.417C179.006 245.746 178.213 245.93 177.376 245.93H108.013C104.917 245.93 102.402 243.415 102.402 240.319C102.403 239.662 102.516 239.033 102.724 238.447Z" fill="#AA1439"/>
<path fill-rule="evenodd" clip-rule="evenodd" d="M94.083 109.469C93.793 109.469 93.599 109.459 93.309 109.44C90.31 109.063 88.085 106.257 88.473 103.181C91.181 81.56 106.369 63.605 127.265 57.471C130.264 56.591 133.36 58.283 134.23 61.263C135.1 64.233 133.456 67.358 130.457 68.228C113.818 73.113 101.725 87.373 99.597 104.554C99.21 107.398 96.888 109.469 94.083 109.469Z" fill="#AA1439"/>
<path fill-rule="evenodd" clip-rule="evenodd" d="M236.58 130.19C228.164 130.19 221.295 137.039 221.295 145.475C221.295 153.901 228.163 160.76 236.58 160.76C244.996 160.76 251.865 153.901 251.865 145.475C251.865 137.04 244.997 130.19 236.58 130.19ZM236.58 212.487C233.291 212.487 230.099 212.255 226.906 211.79C220.328 210.852 215.587 205.328 215.587 198.682C215.587 195.199 213.749 191.959 210.75 190.217C207.751 188.495 203.978 188.495 200.979 190.236C195.175 193.564 188.016 192.2 183.953 186.976C179.89 181.907 176.698 176.286 174.279 170.298C171.861 164.126 174.182 157.238 179.987 153.911C182.986 152.189 184.921 148.948 184.921 145.475C184.921 142.002 182.986 138.752 179.987 137.03C174.182 133.712 171.861 126.814 174.279 120.652C176.698 114.654 179.89 109.034 183.953 103.965C188.016 98.7509 195.175 97.3769 200.979 100.714C203.978 102.446 207.751 102.456 210.75 100.724C213.749 98.9829 215.587 95.7419 215.587 92.2589C215.587 85.6129 220.327 80.0889 226.906 79.1509C233.291 78.2219 239.869 78.2419 246.157 79.1509C252.735 80.0899 257.572 85.6129 257.475 92.2589C257.475 95.7419 259.41 98.9829 262.409 100.724C265.408 102.446 269.084 102.446 272.18 100.714C277.888 97.3769 285.046 98.7499 289.206 103.965C293.172 109.034 296.461 114.654 298.783 120.652C301.299 126.814 298.88 133.712 293.075 137.03C290.076 138.771 288.238 142.002 288.238 145.475C288.238 148.948 290.076 152.189 293.075 153.911C298.88 157.239 301.298 164.126 298.783 170.298C296.461 176.286 293.172 181.907 289.206 186.986C285.046 192.2 277.887 193.555 272.18 190.236C269.084 188.495 265.409 188.495 262.409 190.217C259.41 191.958 257.475 195.199 257.475 198.682C257.572 205.328 252.735 210.852 246.157 211.79C242.965 212.255 239.773 212.487 236.58 212.487Z" fill="#AA1439"/>
<path fill-rule="evenodd" clip-rule="evenodd" d="M236.58 130.19C232.413 130.19 228.625 131.87 225.863 134.59C220.836 137.094 217.368 142.286 217.368 148.28C217.368 156.706 224.236 163.565 232.653 163.565C236.819 163.565 240.605 161.884 243.367 159.165C248.395 156.659 251.864 151.464 251.864 145.476C251.865 137.04 244.997 130.19 236.58 130.19ZM184.871 102.907C188.643 101.161 193.154 101.276 197.053 103.519C200.052 105.251 203.825 105.261 206.824 103.529C207.807 102.958 208.665 102.226 209.375 101.378C209.848 101.198 210.308 100.98 210.751 100.724C213.75 98.9829 215.588 95.7419 215.588 92.2589C215.588 88.6889 216.957 85.4429 219.243 83.0569C220.398 82.5219 221.651 82.1449 222.98 81.9549C229.365 81.0259 235.943 81.0459 242.231 81.9549C248.809 82.8939 253.646 88.4169 253.55 95.0629C253.55 98.5459 255.485 101.787 258.484 103.528C261.483 105.25 265.159 105.25 268.254 103.518C273.962 100.18 281.121 101.554 285.28 106.769C289.246 111.838 292.536 117.458 294.857 123.456C297.372 129.618 294.954 136.516 289.149 139.834C286.15 141.575 284.312 144.806 284.312 148.279C284.312 151.752 286.15 154.993 289.149 156.715C294.953 160.043 297.372 166.931 294.857 173.103C292.535 179.091 289.246 184.712 285.28 189.791C284.997 190.146 284.699 190.482 284.389 190.802C280.575 192.588 276.045 192.484 272.181 190.237C269.085 188.496 265.41 188.496 262.41 190.218C261.421 190.792 260.549 191.53 259.823 192.385C259.365 192.562 258.917 192.774 258.484 193.023C255.485 194.764 253.55 198.005 253.55 201.488C253.602 205.048 252.237 208.286 249.948 210.67C248.776 211.216 247.503 211.6 246.158 211.792C242.966 212.256 239.773 212.489 236.581 212.489C233.292 212.489 230.1 212.257 226.907 211.792C220.329 210.854 215.588 205.33 215.588 198.684C215.588 195.201 213.75 191.961 210.751 190.219C207.752 188.497 203.979 188.497 200.98 190.238C195.176 193.566 188.017 192.202 183.954 186.978C179.891 181.909 176.699 176.288 174.28 170.3C171.862 164.128 174.183 157.24 179.988 153.913C182.987 152.191 184.922 148.95 184.922 145.477C184.922 142.004 182.987 138.754 179.988 137.032C174.183 133.714 171.862 126.816 174.28 120.654C176.699 114.656 179.891 109.036 183.954 103.967C184.244 103.592 184.551 103.24 184.871 102.907Z" fill="#6B021C"/>
</svg>
