<svg width="512" height="512" viewBox="0 0 512 512" fill="none" xmlns="http://www.w3.org/2000/svg">
<g clip-path="url(#clip0_2_2)">
<path d="M19.176 385.96L19.403 386.194C18.547 393.303 18.471 400.402 19.127 407.373L0 427.025L12.215 456.706L38.2 457.001C42.917 463.289 48.426 469.016 54.659 474.013L54.932 499.686L84.443 511.986L102.702 494.038C110.623 494.94 118.547 494.812 126.304 493.724L144.877 512L174.396 499.713L174.708 472.218C180.077 467.758 185.018 462.687 189.417 457.054L217.144 456.752L229.38 427.076L209.998 407.138C210.854 400.029 210.93 392.93 210.274 385.959H165.34L115.897 416.864L64.068 385.96H19.176Z" fill="#D9DDFF"/>
<path d="M165.339 385.96C167.422 395.881 166.655 406.515 162.501 416.59C151.555 443.138 121.281 455.739 94.8811 444.735C71.4971 434.989 59.0121 409.993 64.0681 385.959L165.339 385.96Z" fill="white"/>
<path d="M415.638 350.238C405.938 350.239 397.361 343.949 394.271 334.556C394.195 334.326 394.123 334.095 394.057 333.863L371.313 255.195L357.566 332.927C355.888 342.419 347.783 349.077 338.655 349.077C337.52 349.077 336.372 348.975 335.215 348.762C324.759 346.836 317.812 336.624 319.698 325.953L345.396 180.652C345.41 180.576 345.424 180.5 345.439 180.424C347.375 170.169 355.859 162.52 366.069 161.823C366.575 161.788 367.08 161.772 367.581 161.772C377.197 161.772 385.847 168.044 388.943 177.454C389.018 177.684 389.09 177.915 389.157 178.148L415.378 268.845L440.657 178.345C440.721 178.117 440.79 177.889 440.861 177.664C443.888 168.151 452.589 161.764 462.296 161.764C462.721 161.764 463.146 161.776 463.575 161.801C473.788 162.39 482.347 169.947 484.39 180.176C484.405 180.254 484.42 180.332 484.435 180.41L511.654 325.755C513.648 336.406 506.805 346.69 496.368 348.726C495.148 348.964 493.933 349.079 492.736 349.079C483.686 349.079 475.621 342.532 473.86 333.127L459.24 255.06L437.285 333.659C437.221 333.887 437.152 334.114 437.081 334.34C434.071 343.8 425.5 350.19 415.752 350.239C415.715 350.238 415.676 350.238 415.638 350.238Z" fill="#7776D0"/>
<path d="M511.655 325.753L484.435 180.408L484.39 180.174C482.347 169.945 473.788 162.388 463.575 161.799C463.147 161.774 462.721 161.762 462.296 161.762C453.368 161.762 445.292 167.164 441.698 175.433C442.35 176.931 442.852 178.518 443.183 180.174L443.228 180.408L458.024 259.413L459.24 255.058L473.86 333.125C475.621 342.53 483.686 349.077 492.736 349.077C493.933 349.077 495.148 348.962 496.368 348.724C506.806 346.688 513.649 336.404 511.655 325.753Z" fill="#6967BF"/>
<path d="M92.345 350.238C41.425 350.238 0 307.963 0 256C0 204.037 41.425 161.762 92.345 161.762C110.848 161.762 128.706 167.331 143.989 177.868C164.179 191.787 143.341 224.811 122.449 210.406C113.552 204.272 103.142 201.03 92.346 201.03C62.644 201.03 38.48 225.689 38.48 256C38.48 286.311 62.644 310.97 92.346 310.97C104.404 310.97 115.905 306.361 123.661 296.926C139.594 277.537 168.971 302.902 153.143 322.16C138.173 340.372 115.802 350.238 92.345 350.238Z" fill="#7776D0"/>
<path d="M102.781 177.868C112.35 184.464 112.703 195.351 108.203 203.448C113.233 205.025 118.027 207.358 122.448 210.406C143.34 224.811 164.179 191.787 143.988 177.868C128.705 167.332 110.847 161.762 92.344 161.762C85.271 161.762 78.381 162.578 71.759 164.122C82.786 166.689 93.282 171.318 102.781 177.868Z" fill="#6967BF"/>
<path d="M123.659 296.926C121.258 299.847 118.498 302.304 115.474 304.306C117.381 309.866 116.752 316.296 111.933 322.16C101.333 335.057 87.021 343.768 71.239 347.755C78.02 349.379 85.085 350.238 92.344 350.238C115.801 350.238 138.173 340.372 153.14 322.16C168.969 302.902 139.592 277.538 123.659 296.926Z" fill="#6967BF"/>
<path d="M256.312 275.694C280.066 268.05 297.278 246.058 297.278 220.173C297.278 187.965 270.637 161.762 237.89 161.762H199.037C199.029 161.762 199.021 161.763 199.013 161.763C199.005 161.763 198.997 161.762 198.989 161.762C188.364 161.762 179.75 170.552 179.75 181.396V330.604C179.75 341.447 188.364 350.238 198.989 350.238C209.615 350.238 218.228 341.448 218.228 330.604V290.972L263.596 343.576C267.399 347.986 272.708 350.238 278.046 350.238C282.56 350.238 287.095 348.625 290.749 345.343C298.725 338.178 299.501 325.772 292.48 317.633L256.312 275.694ZM237.891 201.03C249.225 201.03 258.8 209.797 258.8 220.174C258.8 230.551 249.225 239.318 237.891 239.318C233.337 239.318 225.718 239.349 218.44 239.384C218.404 232.147 218.374 224.632 218.374 220.175C218.374 216.348 218.356 208.604 218.335 201.031H237.891V201.03Z" fill="#7776D0"/>
<path d="M292.481 317.633L256.312 275.694C280.066 268.05 297.278 246.058 297.278 220.173C297.278 187.965 270.637 161.762 237.89 161.762H199.037C199.029 161.762 199.021 161.763 199.013 161.763C199.005 161.763 198.997 161.762 198.989 161.762C197.516 161.762 196.082 161.931 194.704 162.251C217.495 165.166 236.27 180.839 243.357 201.723C252.141 203.987 258.799 211.52 258.799 220.173C258.799 228.827 252.14 236.36 243.355 238.624C239.324 250.496 231.513 260.682 221.334 267.797C213.721 273.119 212.557 283.962 218.623 290.996L241.595 317.632C242.336 318.491 242.989 319.397 243.557 320.34L263.596 343.575C267.399 347.985 272.708 350.237 278.046 350.237C282.56 350.237 287.094 348.625 290.749 345.342C298.726 338.178 299.502 325.772 292.481 317.633Z" fill="#6967BF"/>
<path d="M162.559 19.451V58.776C162.559 69.519 153.85 78.227 143.108 78.227H74.403L42.501 101.974V78.228H19.451C8.709 78.228 0 69.519 0 58.777V19.452C0 8.709 8.709 0 19.451 0H143.107C153.85 0 162.559 8.709 162.559 19.451Z" fill="#FFD54D"/>
<path d="M143.108 0H101.9C112.643 0 121.351 8.709 121.351 19.451V58.776C121.351 69.518 112.642 78.227 101.9 78.227H143.107C153.85 78.227 162.558 69.518 162.558 58.776V19.451C162.559 8.709 153.85 0 143.108 0Z" fill="#FFC919"/>
<path d="M459.837 492.549V453.224C459.837 442.481 451.128 433.773 440.386 433.773H371.681L339.779 410.026V433.773H316.729C305.986 433.773 297.278 442.482 297.278 453.224V492.549C297.278 503.292 305.987 512 316.729 512H440.385C451.129 512 459.837 503.291 459.837 492.549Z" fill="#FFD54D"/>
<path d="M440.386 433.772H399.179C409.922 433.772 418.63 442.481 418.63 453.223V492.548C418.63 503.291 409.921 511.999 399.179 511.999H440.386C451.129 511.999 459.837 503.291 459.837 492.548V453.223C459.837 442.481 451.129 433.772 440.386 433.772Z" fill="#FFC919"/>
<path d="M511.974 407.002C511.974 391.068 499.043 378.15 483.092 378.15C472.236 378.15 462.783 384.137 457.849 392.982C452.915 384.136 443.463 378.15 432.606 378.15C416.655 378.15 403.724 391.067 403.724 407.002C403.724 407.002 400.786 440.562 457.849 466.36C514.913 440.562 511.974 407.002 511.974 407.002Z" fill="#FF8CCC"/>
<path d="M511.974 407.002C511.974 391.068 499.043 378.15 483.092 378.15C475.023 378.15 467.731 381.457 462.492 386.786C467.61 391.992 470.768 399.128 470.768 407.002C470.768 407.002 472.941 431.827 437.247 455.186C443.055 458.987 449.865 462.749 457.851 466.359C514.913 440.562 511.974 407.002 511.974 407.002Z" fill="#FF78C2"/>
<path d="M268.909 127.155V53.396H328.74V127.155" fill="#FFD54D"/>
<path d="M451.854 127.155V93.95H511.686V127.155" fill="#D9DDFF"/>
<path d="M360.382 127.155V0H420.213V127.155" fill="#FF8CCC"/>
<path d="M481.77 0L491.112 18.928L512 21.963L496.885 36.697L500.453 57.501L481.77 47.678L463.087 57.501L466.655 36.697L451.54 21.963L472.428 18.928L481.77 0Z" fill="#FFD54D"/>
<path d="M174.758 127.155C203.2 127.155 226.257 104.098 226.257 75.656C226.257 47.2139 203.2 24.157 174.758 24.157C146.316 24.157 123.259 47.2139 123.259 75.656C123.259 104.098 146.316 127.155 174.758 127.155Z" fill="#A6F5CF"/>
<path d="M174.758 24.157C167.432 24.157 160.464 25.687 154.154 28.444C172.34 36.392 185.049 54.54 185.049 75.656C185.049 96.772 172.34 114.92 154.154 122.868C160.463 125.625 167.432 127.155 174.758 127.155C203.2 127.155 226.257 104.098 226.257 75.656C226.257 47.214 203.2 24.157 174.758 24.157Z" fill="#8AEDBD"/>
<path d="M191.25 97.291C189.491 97.292 187.723 96.694 186.274 95.472L169.778 81.563C168.037 80.095 167.032 77.934 167.032 75.656V48.096C167.032 43.829 170.491 40.37 174.758 40.37C179.025 40.37 182.484 43.829 182.484 48.096V72.064L196.234 83.658C201.435 88.043 198.681 97.291 191.25 97.291Z" fill="white"/>
</g>
<defs>
<clipPath id="clip0_2_2">
<rect width="512" height="512" fill="white"/>
</clipPath>
</defs>
</svg>
