<svg width="512" height="512" viewBox="0 0 512 512" fill="none" xmlns="http://www.w3.org/2000/svg">
<path d="M362.667 42.6667H149.333C90.4229 42.6667 42.6666 90.423 42.6666 149.333V362.667C42.6666 421.577 90.4229 469.333 149.333 469.333H362.667C421.577 469.333 469.333 421.577 469.333 362.667V149.333C469.333 90.423 421.577 42.6667 362.667 42.6667Z" fill="url(#paint0_linear_1_125)"/>
<g opacity="0.9">
<path d="M192 314.667C189.899 314.668 187.817 314.255 185.876 313.451C183.934 312.648 182.169 311.47 180.683 309.984L138.016 267.317C136.529 265.832 135.35 264.067 134.545 262.125C133.74 260.183 133.326 258.102 133.326 256C133.326 253.898 133.74 251.817 134.545 249.875C135.35 247.933 136.529 246.169 138.016 244.683L180.683 202.016C183.684 199.014 187.755 197.328 192 197.328C196.245 197.328 200.316 199.014 203.317 202.016C206.319 205.018 208.005 209.089 208.005 213.333C208.005 217.578 206.319 221.649 203.317 224.651L171.957 256L203.317 287.349C205.557 289.587 207.082 292.439 207.7 295.543C208.317 298.648 208.001 301.866 206.789 304.791C205.577 307.715 203.526 310.215 200.893 311.973C198.26 313.731 195.166 314.668 192 314.667Z" fill="white"/>
</g>
<g opacity="0.9">
<path d="M320 314.667C316.834 314.668 313.74 313.731 311.107 311.973C308.474 310.215 306.423 307.715 305.211 304.791C303.999 301.866 303.683 298.648 304.301 295.543C304.918 292.439 306.443 289.587 308.683 287.349L340.043 256L308.683 224.651C307.196 223.165 306.017 221.4 305.213 219.458C304.409 217.516 303.995 215.435 303.995 213.333C303.995 211.232 304.409 209.15 305.213 207.208C306.017 205.267 307.196 203.502 308.683 202.016C311.684 199.014 315.755 197.328 320 197.328C322.102 197.328 324.183 197.742 326.125 198.547C328.067 199.351 329.831 200.53 331.317 202.016L373.984 244.683C375.471 246.169 376.65 247.933 377.455 249.875C378.26 251.817 378.674 253.898 378.674 256C378.674 258.102 378.26 260.183 377.455 262.125C376.65 264.067 375.471 265.832 373.984 267.317L331.317 309.984C329.831 311.47 328.066 312.648 326.124 313.451C324.183 314.255 322.101 314.668 320 314.667Z" fill="white"/>
</g>
<g opacity="0.5">
<path d="M234.667 346.667C233.177 346.665 231.694 346.456 230.261 346.048C226.182 344.882 222.734 342.143 220.673 338.435C218.613 334.726 218.11 330.351 219.275 326.272L261.941 176.939C262.485 174.881 263.434 172.953 264.732 171.267C266.03 169.581 267.651 168.17 269.501 167.119C271.351 166.067 273.392 165.394 275.505 165.141C277.618 164.887 279.76 165.058 281.806 165.643C283.852 166.227 285.761 167.214 287.421 168.545C289.081 169.877 290.459 171.526 291.473 173.396C292.488 175.267 293.12 177.321 293.331 179.438C293.542 181.556 293.329 183.694 292.704 185.728L250.037 335.061C249.083 338.402 247.067 341.342 244.294 343.436C241.521 345.529 238.141 346.664 234.667 346.667Z" fill="white"/>
</g>
<defs>
<linearGradient id="paint0_linear_1_125" x1="91.8293" y1="91.8294" x2="433.269" y2="433.269" gradientUnits="userSpaceOnUse">
<stop stop-color="#9B8DFF"/>
<stop offset="0.252" stop-color="#7D79FD"/>
<stop offset="0.555" stop-color="#5F65FB"/>
<stop offset="0.815" stop-color="#4D58F9"/>
<stop offset="1" stop-color="#4654F9"/>
</linearGradient>
</defs>
</svg>
