<svg width="68" height="68" viewBox="0 0 68 68" fill="none" xmlns="http://www.w3.org/2000/svg">
<g clip-path="url(#clip0_2930_36)">
<path d="M67.8925 1.45881C67.6553 0.623289 66.9196 0 66.0077 0H58.039C56.9378 0 56.0468 0.891039 56.0468 1.99219C56.0468 3.09334 56.9378 3.98438 58.039 3.98438H62.6982L53.1844 14.726C40.3578 29.2355 21.4819 36.9046 2.16316 35.2257C1.10292 35.1148 0.102841 35.9417 0.00761457 37.0389C-0.0877448 38.1342 0.723607 39.0992 1.82077 39.1944C3.68453 39.3559 5.25716 39.4356 7.11521 39.4356C25.7317 39.4356 43.7469 31.4143 56.169 17.3639L64.0155 8.50797V9.96094C64.0155 11.0621 64.9066 11.9531 66.0077 11.9531C67.1089 11.9531 67.9999 11.0621 67.9999 9.96094V3.95808L67.8925 1.45881Z" fill="#AA1439" fill-opacity="0.5"/>
<path d="M66.0078 64.0165H63.8828V19.2268C63.8828 18.3902 63.3595 17.6431 62.5735 17.3552C61.7896 17.0731 60.9082 17.3026 60.3674 17.9428L59.1437 19.396C57.1204 21.7967 54.9161 24.0788 52.5892 26.1741C52.169 26.5515 51.9297 27.0904 51.9297 27.6545V64.0165H47.9453V33.8706C47.9453 33.1352 47.5386 32.4581 46.8909 32.1119C46.2431 31.7695 45.4512 31.8045 44.8423 32.2169C42.3696 33.8784 39.7626 35.3959 37.0933 36.7304C36.4182 37.067 35.9922 37.7576 35.9922 38.5125V64.0165H32.0078V41.9093C32.0078 41.2614 31.6926 40.6545 31.1635 40.2809C30.6363 39.9093 29.9553 39.8198 29.3464 40.0339C26.8192 40.9346 24.2122 41.6992 21.5974 42.3023C20.6947 42.5124 20.0547 43.3159 20.0547 44.2439V64.0165H16.0703V45.6174C16.0703 45.0494 15.8271 44.5084 15.4049 44.1311C14.9789 43.7537 14.401 43.5611 13.8525 43.6389C11.2961 43.9307 8.69112 44.0805 6.10752 44.0844C5.00836 44.0864 4.11732 44.9774 4.11732 46.0766V64.0165H1.99219C0.891039 64.0165 0 64.9075 0 66.0087C0 67.1098 0.891039 68.0009 1.99219 68.0009H66.0078C67.109 68.0009 68 67.1098 68 66.0087C68 64.9075 67.109 64.0165 66.0078 64.0165Z" fill="#AA1439"/>
</g>
<defs>
<clipPath id="clip0_2930_36">
<rect width="68" height="68" fill="white"/>
</clipPath>
</defs>
</svg>
