<svg width="130" height="130" viewBox="0 0 130 130" fill="none" xmlns="http://www.w3.org/2000/svg">
<g clip-path="url(#clip0_1_575)">
<path d="M118.034 8.125H60.9197C54.3102 8.125 48.9534 13.4828 48.9534 20.0913V48.2243C51.9725 49.725 55.2346 51.3476 58.2795 52.8611L62.938 43.54C65.7588 37.9034 72.6351 35.6133 78.2696 38.4291C83.9161 41.2548 86.2042 48.1123 83.3775 53.7597L75.073 70.3727C75.2932 72.5716 75.0978 74.7883 74.4779 76.9336H79.9607L65.4999 116.698C64.642 119.056 66.3003 121.809 69.0804 121.809C70.6346 121.809 72.0965 120.849 72.6579 119.3L88.0648 76.9336H90.7338L106.298 119.313C106.864 120.854 108.322 121.809 109.875 121.809C112.473 121.809 114.377 119.214 113.448 116.688L98.8479 76.9336H118.034C124.642 76.9336 130 71.5758 130 64.9673V20.0913C130 13.4828 124.642 8.125 118.034 8.125ZM109.873 60.6171H92.7849C90.6823 60.6171 88.9763 58.9112 88.9763 56.8085C88.9763 54.7039 90.6823 53 92.7849 53H109.873C111.978 53 113.682 54.7039 113.682 56.8085C113.682 58.9112 111.978 60.6171 109.873 60.6171ZM109.873 46.3379H92.7849C90.6823 46.3379 88.9763 44.6339 88.9763 42.5293C88.9763 40.4266 90.6823 38.7207 92.7849 38.7207H109.873C111.978 38.7207 113.682 40.4266 113.682 42.5293C113.682 44.6339 111.978 46.3379 109.873 46.3379ZM109.873 32.0606H69.0804C66.9758 32.0606 65.2718 30.3547 65.2718 28.252C65.2718 26.1494 66.9758 24.4434 69.0804 24.4434H109.873C111.978 24.4434 113.682 26.1494 113.682 28.252C113.682 30.3547 111.978 32.0606 109.873 32.0606Z" fill="#AA1439"/>
<path d="M67.0114 75.3001C67.6997 73.2837 67.6948 71.1771 67.1136 69.2549L76.5656 50.3528C77.5059 48.4713 76.7442 46.1832 74.8627 45.2429C72.9822 44.3017 70.694 45.0644 69.7528 46.9459L61.6913 63.0669C56.873 60.6677 49.5524 57.0277 43.655 54.0949C38.1683 51.3664 34.2525 48.9196 27.5716 48.9196H24.2064C29.4085 48.9196 34.0512 46.5253 37.0901 42.7782C39.409 39.9268 40.7956 36.2927 40.7956 32.3324C40.7956 23.1689 33.3688 15.7422 24.2044 15.7422C15.0439 15.7422 7.61719 23.1689 7.61719 32.3324C7.61719 36.7331 9.33105 40.7321 12.127 43.6996C15.1501 46.9141 19.4437 48.9196 24.2034 48.9206C17.822 48.9206 11.5835 51.5063 7.09549 56.0062C2.52022 60.5695 0 66.6494 0 73.126V85.3641C0 90.6326 3.42079 95.1157 8.15872 96.7105V117.999C8.15872 120.103 9.86366 121.808 11.9673 121.808H36.4435C38.5471 121.808 40.2521 120.103 40.2521 117.999V75.2068C43.8633 77.0119 48.6072 79.3834 52.4455 81.3036C55.1363 82.6485 58.2804 82.7695 61.0843 81.6289C63.8802 80.4784 66.0355 78.1882 66.9965 75.3447C67.0015 75.3298 67.0065 75.3149 67.0114 75.3001Z" fill="#AA1439"/>
</g>
<defs>
<clipPath id="clip0_1_575">
<rect width="130" height="130" fill="white"/>
</clipPath>
</defs>
</svg>
