<svg width="512" height="512" viewBox="0 0 512 512" fill="none" xmlns="http://www.w3.org/2000/svg">
<g clip-path="url(#clip0_2_42)">
<path d="M152.819 160.315C150.899 160.315 148.98 159.583 147.515 158.119L80.0419 90.644C78.6359 89.237 77.8459 87.33 77.8459 85.34V21.333C77.8459 17.19 81.2029 13.833 85.3459 13.833C89.4889 13.833 92.8459 17.19 92.8459 21.333V82.233L158.123 147.51C161.052 150.44 161.052 155.188 158.123 158.117C156.658 159.582 154.738 160.315 152.819 160.315Z" fill="#D8E8F0"/>
<path d="M356.226 163.279C354.306 163.279 352.387 162.547 350.922 161.083C347.993 158.153 347.993 153.405 350.922 150.476L419.165 82.235V21.335C419.165 17.192 422.522 13.835 426.665 13.835C430.808 13.835 434.165 17.192 434.165 21.335V85.34C434.165 87.329 433.375 89.236 431.969 90.644L361.53 161.082C360.065 162.546 358.145 163.279 356.226 163.279Z" fill="#D8E8F0"/>
<path d="M256 124.602C251.857 124.602 248.5 121.245 248.5 117.102V28.446C248.5 24.303 251.857 20.946 256 20.946C260.143 20.946 263.5 24.303 263.5 28.446V117.102C263.5 121.245 260.143 124.602 256 124.602Z" fill="#D8E8F0"/>
<path d="M85.3459 498.166C81.2029 498.166 77.8459 494.809 77.8459 490.666V426.66C77.8459 424.671 78.6359 422.764 80.0419 421.356L144.161 357.236C147.091 354.308 151.839 354.308 154.768 357.236C157.697 360.166 157.697 364.914 154.768 367.843L92.8449 429.766V490.666C92.8459 494.809 89.4879 498.166 85.3459 498.166Z" fill="#D8E8F0"/>
<path d="M426.665 501.71C422.522 501.71 419.165 498.353 419.165 494.21V429.766L354.769 365.37C351.84 362.44 351.84 357.692 354.769 354.763C357.699 351.835 362.447 351.835 365.376 354.763L431.969 421.356C433.375 422.763 434.165 424.67 434.165 426.66V494.211C434.165 498.353 430.808 501.71 426.665 501.71Z" fill="#D8E8F0"/>
<path d="M256 504.562C251.857 504.562 248.5 501.205 248.5 497.062V402.447C248.5 398.304 251.857 394.947 256 394.947C260.143 394.947 263.5 398.304 263.5 402.447V497.062C263.5 501.205 260.143 504.562 256 504.562Z" fill="#D8E8F0"/>
<path d="M94.283 263.5H16.344C12.201 263.5 8.84399 260.143 8.84399 256C8.84399 251.857 12.201 248.5 16.344 248.5H94.283C98.426 248.5 101.783 251.857 101.783 256C101.783 260.143 98.426 263.5 94.283 263.5Z" fill="#D8E8F0"/>
<path d="M488.264 263.5H416.502C412.359 263.5 409.002 260.143 409.002 256C409.002 251.857 412.359 248.5 416.502 248.5H488.264C492.407 248.5 495.764 251.857 495.764 256C495.764 260.143 492.406 263.5 488.264 263.5Z" fill="#D8E8F0"/>
<path d="M423.805 217.596L381.683 210.576C381.082 210.476 380.583 210.061 380.369 209.489C379.286 206.594 378.105 203.748 376.829 200.953C376.576 200.398 376.635 199.752 376.99 199.255L401.813 164.503C402.788 163.138 402.633 161.268 401.447 160.082L351.922 110.557C350.736 109.371 348.866 109.216 347.501 110.191L312.749 135.014C312.252 135.369 311.606 135.428 311.051 135.175C308.256 133.9 305.41 132.718 302.515 131.635C301.944 131.421 301.529 130.923 301.428 130.321L294.408 88.2C294.132 86.545 292.701 85.333 291.023 85.333H220.985C219.308 85.333 217.876 86.546 217.6 88.2L210.58 130.322C210.48 130.923 210.065 131.422 209.493 131.636C206.598 132.719 203.752 133.9 200.957 135.176C200.402 135.429 199.756 135.37 199.259 135.015L164.507 110.192C163.142 109.217 161.272 109.372 160.086 110.558L110.561 160.083C109.375 161.269 109.22 163.139 110.195 164.504L135.018 199.256C135.373 199.753 135.432 200.399 135.179 200.954C133.904 203.749 132.722 206.595 131.639 209.49C131.425 210.061 130.927 210.476 130.325 210.577L88.2029 217.597C86.5479 217.873 85.3359 219.304 85.3359 220.982V291.02C85.3359 292.697 86.5489 294.129 88.2029 294.405L130.325 301.425C130.926 301.525 131.425 301.94 131.639 302.512C132.722 305.407 133.903 308.253 135.179 311.048C135.432 311.603 135.373 312.249 135.018 312.746L110.195 347.498C109.22 348.863 109.375 350.733 110.561 351.919L160.086 401.444C161.272 402.63 163.142 402.785 164.507 401.81L199.259 376.987C199.756 376.632 200.402 376.573 200.957 376.826C203.752 378.101 206.598 379.283 209.493 380.366C210.064 380.58 210.479 381.078 210.58 381.68L217.6 423.802C217.876 425.457 219.307 426.669 220.985 426.669H291.023C292.7 426.669 294.132 425.456 294.408 423.802L301.428 381.68C301.528 381.079 301.943 380.58 302.515 380.366C305.41 379.283 308.256 378.102 311.051 376.826C311.606 376.573 312.252 376.632 312.749 376.987L347.501 401.81C348.866 402.785 350.736 402.63 351.922 401.444L401.447 351.919C402.633 350.733 402.788 348.863 401.813 347.498L376.99 312.746C376.635 312.249 376.576 311.603 376.829 311.048C378.104 308.253 379.286 305.407 380.369 302.512C380.583 301.941 381.081 301.526 381.683 301.425L423.805 294.405C425.46 294.129 426.672 292.698 426.672 291.02V220.982C426.672 219.303 425.459 217.872 423.805 217.596Z" fill="#0681AF"/>
<path d="M355.306 134.546C359.338 138.578 359.864 144.934 356.55 149.574L338.497 174.848C336.48 177.673 336.114 181.331 337.445 184.537C337.459 184.572 337.474 184.606 337.488 184.641C338.815 187.845 341.659 190.169 345.079 190.739L375.716 195.845C376.789 196.024 377.807 196.346 378.752 196.789L401.813 164.503C402.788 163.138 402.633 161.268 401.447 160.082L351.922 110.557C350.736 109.371 348.866 109.216 347.501 110.191L337.847 117.087L355.306 134.546Z" fill="#017297"/>
<path d="M423.805 217.596L385.463 211.206V263.44C385.463 269.142 381.34 274.009 375.716 274.946L345.079 280.052C341.658 280.622 338.815 282.946 337.488 286.15C337.474 286.185 337.46 286.219 337.445 286.254C336.114 289.46 336.48 293.118 338.497 295.943L356.55 321.217C359.865 325.857 359.338 332.213 355.306 336.246L315.645 375.906C315.003 376.548 314.302 377.101 313.558 377.564L347.501 401.809C348.866 402.784 350.736 402.629 351.922 401.443L401.447 351.918C402.633 350.732 402.788 348.862 401.813 347.497L376.99 312.745C376.635 312.248 376.576 311.602 376.83 311.047C378.105 308.252 379.287 305.406 380.37 302.511C380.584 301.94 381.082 301.525 381.684 301.425L423.806 294.405C425.46 294.129 426.673 292.698 426.673 291.02V220.982C426.672 219.303 425.459 217.872 423.805 217.596Z" fill="#017297"/>
<path d="M300.617 377.149L275.343 359.096C272.518 357.078 268.86 356.713 265.654 358.044C265.62 358.058 265.585 358.073 265.55 358.087C262.346 359.414 260.022 362.258 259.452 365.678L254.346 396.315C253.408 401.94 248.542 406.062 242.84 406.062H214.645L217.601 423.799C217.877 425.453 219.308 426.666 220.986 426.666H291.024C292.701 426.666 294.133 425.453 294.409 423.799L301.429 381.677C301.529 381.075 301.944 380.577 302.516 380.363C303.539 379.98 304.557 379.585 305.568 379.177C303.828 378.903 302.131 378.231 300.617 377.149Z" fill="#017297"/>
<path d="M85.3391 42.666C97.121 42.666 106.672 33.1149 106.672 21.333C106.672 9.55111 97.121 0 85.3391 0C73.5572 0 64.0061 9.55111 64.0061 21.333C64.0061 33.1149 73.5572 42.666 85.3391 42.666Z" fill="#01C0FA"/>
<path d="M256 42.666C267.782 42.666 277.333 33.1149 277.333 21.333C277.333 9.55111 267.782 0 256 0C244.218 0 234.667 9.55111 234.667 21.333C234.667 33.1149 244.218 42.666 256 42.666Z" fill="#FED402"/>
<path d="M426.672 42.666C438.454 42.666 448.005 33.1149 448.005 21.333C448.005 9.55111 438.454 0 426.672 0C414.89 0 405.339 9.55111 405.339 21.333C405.339 33.1149 414.89 42.666 426.672 42.666Z" fill="#FE0364"/>
<path d="M85.3391 512C97.121 512 106.672 502.449 106.672 490.667C106.672 478.885 97.121 469.334 85.3391 469.334C73.5572 469.334 64.0061 478.885 64.0061 490.667C64.0061 502.449 73.5572 512 85.3391 512Z" fill="#FD6930"/>
<path d="M256 512C267.782 512 277.333 502.449 277.333 490.667C277.333 478.885 267.782 469.334 256 469.334C244.218 469.334 234.667 478.885 234.667 490.667C234.667 502.449 244.218 512 256 512Z" fill="#01C0FA"/>
<path d="M426.672 512C438.454 512 448.005 502.449 448.005 490.667C448.005 478.885 438.454 469.334 426.672 469.334C414.89 469.334 405.339 478.885 405.339 490.667C405.339 502.449 414.89 512 426.672 512Z" fill="#AF66DA"/>
<path d="M21.333 277.333C33.1149 277.333 42.666 267.782 42.666 256C42.666 244.218 33.1149 234.667 21.333 234.667C9.55111 234.667 0 244.218 0 256C0 267.782 9.55111 277.333 21.333 277.333Z" fill="#0ED2B3"/>
<path d="M490.667 277.333C502.449 277.333 512 267.782 512 256C512 244.218 502.449 234.667 490.667 234.667C478.885 234.667 469.334 244.218 469.334 256C469.334 267.782 478.885 277.333 490.667 277.333Z" fill="#FED402"/>
<path d="M326.399 193.107C324.479 193.107 322.56 192.375 321.095 190.911C303.709 173.524 280.593 163.949 256.005 163.949C231.417 163.949 208.301 173.524 190.915 190.911C187.985 193.839 183.237 193.839 180.308 190.911C177.379 187.981 177.379 183.233 180.308 180.304C200.528 160.084 227.412 148.95 256.005 148.95C284.6 148.95 311.483 160.085 331.702 180.304C334.631 183.234 334.631 187.982 331.702 190.911C330.237 192.374 328.317 193.107 326.399 193.107Z" fill="#017297"/>
<path d="M256.005 363.001C228.592 363.001 201.178 352.566 180.308 331.697C177.379 328.767 177.379 324.019 180.308 321.09C183.238 318.162 187.986 318.162 190.915 321.09C226.807 356.982 285.207 356.98 321.095 321.09C324.025 318.162 328.773 318.162 331.702 321.09C334.631 324.02 334.631 328.768 331.702 331.697C310.832 352.567 283.419 363.001 256.005 363.001Z" fill="#017297"/>
<path d="M277.72 360.794L275.343 359.096C272.519 357.078 268.86 356.713 265.655 358.044C265.621 358.058 265.586 358.073 265.551 358.087C263.261 359.035 261.421 360.759 260.349 362.914C266.176 362.679 271.987 361.973 277.72 360.794Z" fill="#025F80"/>
<path d="M206.225 233.541C210.368 233.541 213.725 230.184 213.725 226.041C213.725 221.898 210.368 218.541 206.225 218.541H170.274C166.131 218.541 162.774 221.898 162.774 226.041V285.958C162.774 290.101 166.131 293.458 170.274 293.458H206.225C210.368 293.458 213.725 290.101 213.725 285.958C213.725 281.815 210.368 278.458 206.225 278.458H177.774V263.5H206.225C210.368 263.5 213.725 260.143 213.725 256C213.725 251.857 210.368 248.5 206.225 248.5H177.774V233.541H206.225Z" fill="#F2FBFF"/>
<path d="M257.854 218.541H236.882C232.739 218.541 229.382 221.898 229.382 226.041V285.958C229.382 290.101 232.739 293.458 236.882 293.458C241.025 293.458 244.382 290.101 244.382 285.958V263.5H257.854C261.978 263.5 265.333 266.854 265.333 270.979V285.958C265.333 290.101 268.69 293.458 272.833 293.458C276.976 293.458 280.333 290.101 280.333 285.958V270.979C280.333 265.231 278.164 259.979 274.601 256C278.164 252.021 280.333 246.769 280.333 241.021C280.333 228.625 270.249 218.541 257.854 218.541ZM244.382 233.541H257.854C261.978 233.541 265.333 236.896 265.333 241.02C265.333 245.144 261.978 248.499 257.854 248.499H244.382V233.541Z" fill="#F2FBFF"/>
<path d="M326.747 218.541H305.775C301.632 218.541 298.275 221.898 298.275 226.041V285.958C298.275 290.101 301.632 293.458 305.775 293.458C309.918 293.458 313.275 290.101 313.275 285.958V263.5H326.747C339.143 263.5 349.226 253.416 349.226 241.02C349.226 228.624 339.143 218.541 326.747 218.541ZM326.747 248.5H313.275V233.541H326.747C330.871 233.541 334.226 236.896 334.226 241.02C334.226 245.144 330.871 248.5 326.747 248.5Z" fill="#F2FBFF"/>
</g>
<defs>
<clipPath id="clip0_2_42">
<rect width="512" height="512" fill="white"/>
</clipPath>
</defs>
</svg>
