<svg width="88" height="94" viewBox="0 0 88 94" fill="none" xmlns="http://www.w3.org/2000/svg">
<path d="M27.9238 85.9199H37.8432V66.3054H33.3867C31.6939 66.3054 30.2339 65.1718 29.8139 63.5321C29.4342 62.0489 30.003 60.5212 31.2135 59.6412V52.2963L35.3406 51.6599V57.3418L39.5207 55.0514V51.0064L44.1711 50.2881V52.5036L47.461 50.7011V0.350586L27.9238 8.70222V85.9199ZM44.1713 45.2524L39.5209 46.1277V37.6604L44.1713 36.513V45.2524ZM44.1713 31.4775L39.5209 32.7819V24.3081L44.1713 22.7311V31.4775ZM44.1713 9.50401V17.7025L39.5209 19.4361L39.5195 11.4998L44.1713 9.50401ZM31.2137 15.059L35.3433 13.2889L35.3419 20.9957L31.2135 22.5267L31.2137 15.059ZM31.2137 27.1253L35.3421 25.727V33.9625L31.2137 35.119V27.1255V27.1253ZM31.2137 39.7047L35.3421 38.6872V46.9226L31.2137 47.6984V39.7049V39.7047ZM70.4435 9.19317V49.623L62.7879 45.4285C60.9789 44.4374 58.8931 44.4374 57.0841 45.4285L49.7579 49.4426V0.350586L70.4435 9.19317ZM6.39651 32.12V85.9199H25.6269V23.8995L6.39651 32.12ZM14.6115 72.8095H11.2544V66.3683L14.6122 66.0404L14.6115 72.8095ZM14.6134 62.189L11.2544 62.6489V56.1832L14.6134 55.4932V62.189ZM14.6134 51.6499L11.2544 52.4761V46.0102L14.6134 44.9542V51.6499ZM14.6145 41.1069L11.2546 42.295V36.2561L14.6157 34.8405L14.6145 41.1069ZM21.9178 72.8095H18.0493V65.703L21.9178 65.3248V72.8095ZM21.9178 61.1806L18.0493 61.7137V54.7892L21.9178 53.9908V61.1806ZM21.9178 49.8465L18.0493 50.7995V43.8708L21.9178 42.6483V49.8465ZM21.9178 38.5082L18.0482 39.8855V33.3969L21.9178 31.7571V38.5082ZM87.1541 61.3977L61.6846 47.4428C60.5631 46.8284 59.3098 46.8284 58.1882 47.4428L32.7185 61.3977C32.1539 61.707 31.8796 62.3388 32.0394 62.9626C32.199 63.5864 32.7432 64.0087 33.3871 64.0087H40.1405V85.9199H45.304V72.252H43.8696C43.2353 72.252 42.7212 71.7378 42.7212 71.1035C42.7212 70.4692 43.2353 69.9551 43.8696 69.9551H56.6163C57.2507 69.9551 57.7648 70.4692 57.7648 71.1035C57.7648 71.7378 57.2505 72.252 56.6163 72.252H55.1819V85.9199H79.7325V64.0087H86.4857C87.1297 64.0087 87.6737 63.5864 87.8334 62.9626C87.993 62.3388 87.7189 61.707 87.1541 61.3977ZM56.3409 56.5712C56.3409 54.5855 57.9506 52.9758 59.9363 52.9758C61.9219 52.9758 63.5317 54.5855 63.5317 56.5712C63.5317 58.5568 61.9219 60.1666 59.9363 60.1666C57.9506 60.1666 56.3409 58.5568 56.3409 56.5712ZM67.2084 69.5629H62.1449V64.0089H67.2084V69.5629ZM74.5685 69.5629H69.5053V64.0089H74.5685V69.5629ZM0.121826 92.2122V89.6535C0.121826 88.8633 0.768396 88.2168 1.55852 88.2168H84.7157C85.5059 88.2168 86.1524 88.8633 86.1524 89.6535V92.2122C86.1524 93.0023 85.5059 93.6489 84.7157 93.6489H1.55852C0.768396 93.6489 0.121826 93.0023 0.121826 92.2122Z" fill="#AA1439"/>
</svg>
