<svg width="126" height="74" viewBox="0 0 126 74" fill="none" xmlns="http://www.w3.org/2000/svg">
<path d="M125.67 71.4397C121.11 72.5997 118.29 71.4897 115.76 67.6897C110.08 59.1797 103.81 51.0597 97.76 42.7897C96.98 41.7197 96.17 40.6697 95.16 39.3397C88 48.9997 80.85 58.1997 74.14 67.7697C71.74 71.1897 69.22 72.6797 64.74 71.4697L91.66 35.3397L66.6 2.70967C70.91 1.86967 73.89 2.29967 76.53 6.15967C82.36 14.6797 88.79 22.7897 95.2 31.3697C101.65 22.8197 108 14.6997 114 6.25967C116.41 2.83967 119 1.53967 123.33 2.79967C120.05 7.14967 116.84 11.4297 113.61 15.6797C109.25 21.4097 104.97 27.2097 100.45 32.8197C98.84 34.8197 99.1 36.1197 100.54 38.0097C108.9 48.9997 117.16 60.0997 125.67 71.4397ZM0.330049 34.7397C1.05005 31.1297 1.53005 27.4497 2.53005 23.9097C8.53005 2.47967 33.13 -6.43033 50.03 6.84967C59.93 14.6397 62.3901 25.6197 61.9001 37.9997H6.10005C5.26005 60.2097 21.2501 73.6197 41.6301 66.7797C48.7801 64.3797 52.99 58.7797 55.1 51.7797C56.17 48.2697 57.9401 47.7197 61.2401 48.7197C59.5501 57.4797 55.7201 64.7997 47.7201 69.3797C35.7201 76.2397 18.59 74.0197 9.58005 64.4897C4.26005 58.8897 2.00005 51.9197 1.00005 44.3897C0.850049 43.1897 0.540049 42.0097 0.300049 40.8197C0.320049 38.793 0.330049 36.7663 0.330049 34.7397ZM6.20005 33.2497H56.6301C56.3001 17.1897 46.3001 5.77967 32.6301 5.67967C17.6301 5.55967 6.85005 16.6997 6.20005 33.2497Z" fill="white"/>
</svg>
