<svg width="98" height="90" viewBox="0 0 98 90" fill="none" xmlns="http://www.w3.org/2000/svg">
<path d="M48.9721 8.91859C27.6111 -9.76468 0.450891 6.65098 0.00552282 28.905C-0.107972 34.5766 1.52919 40.1011 4.78802 45.1942H25.9108L29.6678 38.9323C30.7587 37.1142 33.3988 37.0557 34.5515 38.8681L42.4784 51.3245L54.0333 26.9314C55.041 24.803 58.0441 24.7354 59.1555 26.7994L69.0604 45.1942H93.1562C111.006 17.297 75.7291 -14.4838 48.9721 8.91859Z" fill="#AA1439"/>
<path d="M64.8181 49.4263L56.7919 34.5205L45.4421 58.4808C44.4766 60.5193 41.6365 60.6964 40.4256 58.7932L32.2015 45.8698L29.998 49.5423C29.4791 50.407 28.5447 50.936 27.5363 50.936H9.32959C9.90032 51.5333 6.85853 48.4976 46.9472 88.3787C48.0669 89.4928 49.8769 89.493 50.9967 88.3787C90.4686 49.1112 88.0448 51.5322 88.6144 50.936H67.3458C66.2895 50.9362 65.3187 50.3563 64.8181 49.4263Z" fill="#AA1439"/>
</svg>
