<svg width="74" height="74" viewBox="0 0 74 74" fill="none" xmlns="http://www.w3.org/2000/svg">
<g clip-path="url(#clip0_2930_28)">
<path d="M0 41.9987L0.287933 43.597C1.23021 48.8029 3.7053 53.6368 6.7015 57.9597L7.62853 59.2955L11.886 57.8773L16.1225 62.1139L14.7043 66.3713L16.0401 67.4435C20.3636 70.4391 25.1969 72.7697 30.4029 73.7119L32.0012 73.9999L34.0043 69.9965H39.9956L41.9987 73.9999L43.597 73.7119C48.8029 72.7697 53.6368 70.4391 57.9597 67.4435L59.2955 66.3713L57.8773 62.1139L62.1139 57.8773L66.3713 59.2955L67.2989 57.9597C70.2946 53.6368 72.7697 48.8029 73.7119 43.597L73.9999 41.9987L69.6639 39.9956V34.0043L73.9999 32.0012L73.7119 30.4029C72.7697 25.1969 70.2946 20.3636 67.2989 16.0401L66.3713 14.7043L62.1139 16.1225L57.8773 11.886L59.2955 7.62853L57.9597 6.7015C53.6362 3.7053 48.8029 1.23021 43.597 0.287933L41.9987 0L39.9956 4.48046H34.0043L32.0012 0L30.4029 0.287933C25.1969 1.23021 20.3631 3.7053 16.0401 6.7015L14.7043 7.62853L16.1225 11.886L11.886 16.1225L7.62853 14.7043L6.7015 16.0401C3.7053 20.3636 1.23021 25.1969 0.287933 30.4029L0 32.0012L4.33593 34.0043V39.9956L0 41.9987ZM36.9999 13.1523C50.1494 13.1523 60.8475 23.8504 60.8475 36.9999C60.8475 50.1494 50.1494 60.8475 36.9999 60.8475C23.8504 60.8475 13.1523 50.1494 13.1523 36.9999C13.1523 23.8504 23.8504 13.1523 36.9999 13.1523Z" fill="#AA1439"/>
<path d="M43.5039 28.3281C43.5039 31.9199 40.5918 34.832 37 34.832C33.4082 34.832 30.4961 31.9199 30.4961 28.3281C30.4961 24.7363 33.4082 21.8242 37 21.8242C40.5918 21.8242 43.5039 24.7363 43.5039 28.3281Z" fill="#AA1439" fill-opacity="0.5"/>
<path d="M50.0078 51.4828V47.8407C50.0078 44.2415 48.5337 40.9896 46.1924 38.6483C45.4607 37.9172 44.6155 37.308 43.7235 36.7643C41.8694 38.2452 39.5519 39.1688 37 39.1688C34.443 39.1688 32.1215 38.2418 30.2657 36.7559C26.5153 39.0345 23.9922 43.1203 23.9922 47.8407V51.4828C27.4609 54.6483 32.0137 56.5126 37 56.5126C41.9863 56.5126 46.539 54.6483 50.0078 51.4828Z" fill="#AA1439" fill-opacity="0.5"/>
</g>
<defs>
<clipPath id="clip0_2930_28">
<rect width="74" height="74" fill="white"/>
</clipPath>
</defs>
</svg>
