<svg width="96" height="96" viewBox="0 0 96 96" fill="none" xmlns="http://www.w3.org/2000/svg">
<path d="M16.5341 11.585C16.2781 11.319 16.1901 10.934 16.3041 10.583C16.4181 10.232 16.7171 9.97203 17.0801 9.90803L24.8781 8.51903L28.6181 1.52003C28.7921 1.19403 29.1311 0.991028 29.5001 0.991028C29.8691 0.991028 30.2081 1.19403 30.3821 1.52003L34.121 8.51903L41.9201 9.90803C42.2831 9.97203 42.5821 10.232 42.6961 10.583C42.8101 10.934 42.7211 11.32 42.4661 11.585L36.9641 17.301L38.0591 25.153C38.1101 25.519 37.9551 25.883 37.6561 26.1C37.3571 26.318 36.9621 26.351 36.6311 26.19L29.5011 22.718L22.3691 26.19C22.2301 26.258 22.0801 26.291 21.9311 26.291C21.7231 26.291 21.5171 26.227 21.3431 26.1C21.0441 25.883 20.8891 25.518 20.9411 25.153L22.0371 17.301L16.5341 11.585ZM39.1371 79.583H16.8001C16.2481 79.583 15.8001 79.135 15.8001 78.583C15.8001 78.031 16.2481 77.583 16.8001 77.583H36.1431L49.4761 64.251C47.5281 63.128 45.3211 62.518 43.0501 62.518H15.9781C8.82405 62.518 3.00305 68.338 3.00305 75.493V88.362C3.00305 89.733 4.11805 90.849 5.48905 90.849H16.8001H35.2081H35.2101H39.1371C42.2431 90.849 44.7701 88.322 44.7701 85.216C44.7701 82.11 42.2431 79.583 39.1371 79.583ZM39.1371 77.583C41.5811 77.583 43.7551 78.742 45.1531 80.535L55.0141 70.675L54.5591 70.22L52.7311 68.391L50.4481 66.108L38.9711 77.583H39.1371ZM32.1981 92.849H30.5331C31.0841 92.99 31.6561 92.989 32.1981 92.849ZM29.5001 60.519C37.9821 60.519 44.8841 53.618 44.8841 45.135C44.8841 36.668 37.9831 29.779 29.5001 29.779C21.0321 29.779 14.1441 36.668 14.1441 45.135C14.1431 53.617 21.0321 60.519 29.5001 60.519ZM72.493 14.18C72.493 12.434 71.0591 11.013 69.298 11.013C67.552 11.013 66.1321 12.434 66.1321 14.18C66.1321 15.942 67.552 17.375 69.298 17.375C71.0591 17.375 72.493 15.941 72.493 14.18ZM61.9931 33.881C61.9931 33.964 62.0251 34.042 62.0481 34.121C63.2881 33.612 64.5841 33.247 65.9141 33.01H62.8641C62.3831 33.01 61.9931 33.4 61.9931 33.881ZM46.1961 82.32C46.5641 83.214 46.7701 84.191 46.7701 85.216C46.7701 87.447 45.8021 89.452 44.2701 90.849H53.5081C54.8951 90.849 56.0241 89.733 56.0241 88.362V75.493C56.0241 74.583 55.9121 73.68 55.7211 72.796L46.1961 82.32ZM63.2961 30.252V31.01H68.2971V19.273C65.9261 18.803 64.1311 16.7 64.1311 14.179C64.1311 11.33 66.4481 9.01203 69.2971 9.01203C72.162 9.01203 74.4921 11.33 74.4921 14.179C74.4921 16.701 72.6841 18.805 70.2971 19.273V31.01H75.3271V30.252C75.3271 27.008 76.3071 24.199 78.3231 21.665C79.9601 19.592 80.826 17.121 80.826 14.52C80.826 8.16303 75.6541 2.99103 69.2971 2.99103C62.9561 2.99103 57.7971 8.16303 57.7971 14.52C57.7971 17.109 58.6551 19.583 60.2791 21.674C62.3061 24.183 63.2961 26.994 63.2961 30.252ZM92.9881 77.433V79.921L90.5891 80.694C90.259 80.801 90.0091 81.071 89.9271 81.407C89.6541 82.525 89.1961 83.636 88.5641 84.708C88.3881 85.006 88.3791 85.374 88.5401 85.68L89.6831 87.909L87.9241 89.686L85.6581 88.52C85.344 88.36 84.9661 88.376 84.6671 88.565C83.6551 89.206 82.5691 89.657 81.4411 89.908C81.0931 89.985 80.8131 90.241 80.7051 90.581L79.9171 93.002H77.4291L76.6581 90.58C76.553 90.248 76.2821 89.995 75.9431 89.913C74.7311 89.617 73.6571 89.173 72.6581 88.559C72.358 88.374 71.9811 88.361 71.6681 88.525L69.4391 89.686L67.6631 87.91L68.8241 85.68C68.9881 85.367 68.9751 84.992 68.7901 84.691C68.1751 83.692 67.732 82.618 67.4361 81.407C67.3531 81.068 67.1001 80.797 66.7681 80.691L64.3471 79.921V77.432L66.7681 76.644C67.1001 76.538 67.3531 76.267 67.4361 75.928C67.73 74.723 68.1841 73.631 68.7831 72.682C68.9721 72.383 68.9891 72.007 68.8281 71.692L68.4201 70.886C68.716 70.899 69.01 70.929 69.3091 70.929C73.5421 70.929 77.55 69.549 80.8521 67.033C80.9891 67.222 81.1861 67.364 81.4191 67.421C82.5561 67.699 83.6541 68.156 84.6811 68.779C84.9781 68.96 85.3471 68.972 85.6561 68.814L87.9221 67.667L89.6811 69.426L88.534 71.693C88.3761 72.002 88.3891 72.37 88.5691 72.666C89.1931 73.699 89.6501 74.796 89.9261 75.929C90.0091 76.265 90.259 76.535 90.5881 76.642L92.9881 77.433ZM85.4921 78.668C85.4921 74.912 82.4361 71.857 78.6801 71.857C74.9251 71.857 71.8691 74.912 71.8691 78.668C71.8691 82.424 74.9241 85.479 78.6801 85.479C82.4361 85.479 85.4921 82.424 85.4921 78.668ZM78.6801 73.857C76.0281 73.857 73.8691 76.015 73.8691 78.668C73.8691 81.321 76.0271 83.479 78.6801 83.479C81.3331 83.479 83.4921 81.321 83.4921 78.668C83.4921 76.015 81.3331 73.857 78.6801 73.857ZM69.3081 68.93C64.7331 68.93 60.4291 67.154 57.1931 63.931C50.5301 57.242 50.5301 46.38 57.1921 39.718C60.4311 36.48 64.7341 34.696 69.3081 34.696C73.882 34.696 78.1771 36.479 81.4041 39.719C84.6371 42.939 86.4201 47.228 86.4251 51.795C86.4301 56.377 84.6461 60.686 81.4031 63.929C78.1781 67.154 73.883 68.93 69.3081 68.93ZM58.8111 62.311C61.6181 65.119 65.348 66.665 69.312 66.665C73.276 66.665 77.0061 65.119 79.8131 62.311C85.6031 56.521 85.6031 47.1 79.8131 41.31C77.0061 38.502 73.276 36.956 69.312 36.956C65.348 36.956 61.6181 38.502 58.8111 41.31C53.0211 47.099 53.0211 56.521 58.8111 62.311ZM54.7061 64.153L53.0211 65.853L55.2701 68.102L56.9671 66.419C56.5611 66.076 56.1601 65.725 55.7791 65.346C55.3971 64.962 55.0481 64.559 54.7061 64.153ZM78.3991 60.896C83.4091 55.886 83.4091 47.733 78.3991 42.723C75.9691 40.293 72.7421 38.955 69.312 38.955C65.882 38.955 62.6551 40.293 60.2251 42.723C55.215 47.733 55.215 55.886 60.2251 60.896C62.6551 63.326 65.882 64.664 69.312 64.664C72.7421 64.664 75.9691 63.326 78.3991 60.896ZM72.701 33.01C74.034 33.248 75.3341 33.614 76.5751 34.126C76.5991 34.045 76.6311 33.966 76.6311 33.881C76.6311 33.409 76.2321 33.01 75.7601 33.01H72.701Z" fill="#AA1439"/>
</svg>
