<svg width="480" height="481" viewBox="0 0 480 481" fill="none" xmlns="http://www.w3.org/2000/svg">
<path fill-rule="evenodd" clip-rule="evenodd" d="M355.738 452.432H225.039C235.47 437.671 244.12 399.638 240.373 370.297H339.483C335.737 399.638 345.311 437.671 355.738 452.432Z" fill="#CAD0D7"/>
<path fill-rule="evenodd" clip-rule="evenodd" d="M201.747 447.356H379.029C388.144 447.356 395.601 454.813 395.601 463.928C395.601 473.043 388.144 480.5 379.029 480.5H201.747C192.632 480.5 185.175 473.043 185.175 463.928C185.175 454.814 192.632 447.356 201.747 447.356Z" fill="#E4E8EB"/>
<path fill-rule="evenodd" clip-rule="evenodd" d="M460.002 108.934C471.045 108.934 480 117.89 480 128.937V353.848C480 368.884 467.812 381.073 452.775 381.073H127.995C112.958 381.073 100.77 368.885 100.77 353.848V136.159C100.77 121.122 112.958 108.934 127.995 108.934H460.002Z" fill="#CAD0D7"/>
<path fill-rule="evenodd" clip-rule="evenodd" d="M116.572 311.118H464.2C464.2 250.391 464.2 189.664 464.2 128.937C464.2 126.614 462.327 124.735 460.003 124.735H127.996C121.681 124.735 116.572 129.844 116.572 136.159V311.118Z" fill="#38A8D2"/>
<path fill-rule="evenodd" clip-rule="evenodd" d="M480.001 326.919V353.848C480.001 368.884 467.813 381.073 452.776 381.073H127.996C112.959 381.073 100.771 368.885 100.771 353.848V326.919H480.001Z" fill="#E4E8EB"/>
<path fill-rule="evenodd" clip-rule="evenodd" d="M275.418 360.996C271.552 360.996 268.418 357.862 268.418 353.996C268.418 350.13 271.552 346.996 275.418 346.996H305.353C309.219 346.996 312.353 350.13 312.353 353.996C312.353 357.862 309.219 360.996 305.353 360.996H275.418Z" fill="#CAD0D7"/>
<path fill-rule="evenodd" clip-rule="evenodd" d="M194.926 117.969C175.081 117.969 165.124 142.011 179.156 156.043C181.741 158.628 181.741 162.82 179.156 165.405L164.904 179.656C162.319 182.241 158.127 182.241 155.542 179.656C141.51 165.624 117.468 175.581 117.468 195.426C117.468 199.083 114.504 202.045 110.849 202.045H90.695C87.04 202.045 84.076 199.083 84.076 195.426C84.076 175.557 60.052 165.606 46.002 179.656C43.417 182.241 39.225 182.241 36.641 179.656L22.39 165.405C19.805 162.82 19.805 158.628 22.39 156.043C36.422 142.011 26.465 117.969 6.61902 117.969C2.96202 117.969 -0.000976562 115.004 -0.000976562 111.35V91.196C-0.000976562 87.541 2.96102 84.577 6.61902 84.577C26.464 84.577 36.422 60.535 22.39 46.503C19.805 43.918 19.805 39.726 22.39 37.141L36.641 22.89C39.225 20.305 43.418 20.305 46.002 22.89C60.034 36.922 84.076 26.964 84.076 7.11899C84.076 3.46199 87.04 0.498993 90.695 0.498993H110.849C114.504 0.498993 117.468 3.46099 117.468 7.11899C117.468 26.964 141.51 36.922 155.542 22.89C158.127 20.305 162.319 20.305 164.904 22.89L179.156 37.141C181.741 39.725 181.741 43.918 179.156 46.503C165.124 60.534 175.081 84.577 194.926 84.577C198.583 84.577 201.545 87.541 201.545 91.196V111.35C201.546 115.005 198.584 117.969 194.926 117.969Z" fill="#FDCD56"/>
<path d="M100.773 150.519C127.971 150.519 150.019 128.471 150.019 101.273C150.019 74.0752 127.971 52.027 100.773 52.027C73.575 52.027 51.5269 74.0752 51.5269 101.273C51.5269 128.471 73.575 150.519 100.773 150.519Z" fill="#F4F6F8"/>
<path fill-rule="evenodd" clip-rule="evenodd" d="M160.692 299.641C148.062 299.641 141.726 314.941 150.656 323.871C152.301 325.516 152.301 328.184 150.656 329.829L141.587 338.898C139.942 340.543 137.274 340.543 135.629 338.898C126.699 329.968 111.399 336.305 111.399 348.934C111.399 351.261 109.512 353.147 107.187 353.147H94.3602C92.0342 353.147 90.1472 351.262 90.1472 348.934C90.1472 336.289 74.8582 329.957 65.9172 338.898C64.2722 340.543 61.6042 340.543 59.9592 338.898L50.8892 329.829C49.2442 328.184 49.2442 325.516 50.8892 323.871C59.8192 314.941 53.4822 299.641 40.8522 299.641C38.5252 299.641 36.6392 297.754 36.6392 295.428V282.602C36.6392 280.276 38.5242 278.389 40.8522 278.389C53.4822 278.389 59.8182 263.088 50.8892 254.159C49.2442 252.514 49.2442 249.846 50.8892 248.201L59.9592 239.131C61.6042 237.486 64.2722 237.486 65.9172 239.131C74.8472 248.061 90.1472 241.724 90.1472 229.094C90.1472 226.767 92.0332 224.882 94.3602 224.882H107.186C109.512 224.882 111.398 226.767 111.398 229.094C111.398 241.724 126.698 248.06 135.628 239.131C137.273 237.486 139.941 237.486 141.586 239.131L150.655 248.201C152.3 249.846 152.3 252.514 150.655 254.159C141.725 263.089 148.062 278.389 160.691 278.389C163.018 278.389 164.903 280.276 164.903 282.602V295.428C164.905 297.754 163.019 299.641 160.692 299.641Z" fill="#636C77"/>
<path d="M100.773 320.356C118.082 320.356 132.113 306.325 132.113 289.016C132.113 271.707 118.082 257.676 100.773 257.676C83.4645 257.676 69.4331 271.707 69.4331 289.016C69.4331 306.325 83.4645 320.356 100.773 320.356Z" fill="#F4F6F8"/>
<path fill-rule="evenodd" clip-rule="evenodd" d="M308.466 144.452H348.46C350.112 144.452 351.46 145.8 351.46 147.452V172.466C351.46 174.118 350.112 175.466 348.46 175.466H308.466C306.814 175.466 305.466 174.118 305.466 172.466V147.452C305.466 145.8 306.814 144.452 308.466 144.452Z" fill="#C6EA94"/>
<path fill-rule="evenodd" clip-rule="evenodd" d="M394.691 144.452H434.685C436.337 144.452 437.685 145.8 437.685 147.452V172.466C437.685 174.118 436.337 175.466 434.685 175.466H394.691C393.039 175.466 391.691 174.118 391.691 172.466V147.452C391.691 145.8 393.039 144.452 394.691 144.452Z" fill="#66D4F1"/>
<path fill-rule="evenodd" clip-rule="evenodd" d="M222.241 144.452H262.235C263.887 144.452 265.235 145.8 265.235 147.452V172.466C265.235 174.118 263.887 175.466 262.235 175.466H222.241C220.589 175.466 219.241 174.118 219.241 172.466V147.452C219.241 145.8 220.589 144.452 222.241 144.452Z" fill="#F76C82"/>
<path fill-rule="evenodd" clip-rule="evenodd" d="M308.466 203.773H348.46C350.112 203.773 351.46 205.121 351.46 206.773V231.787C351.46 233.439 350.112 234.787 348.46 234.787H308.466C306.814 234.787 305.466 233.439 305.466 231.787V206.773C305.466 205.12 306.814 203.773 308.466 203.773Z" fill="#B3A4EE"/>
<path fill-rule="evenodd" clip-rule="evenodd" d="M394.691 203.773H434.685C436.337 203.773 437.685 205.121 437.685 206.773V231.787C437.685 233.439 436.337 234.787 434.685 234.787H394.691C393.039 234.787 391.691 233.439 391.691 231.787V206.773C391.691 205.12 393.039 203.773 394.691 203.773Z" fill="#FDCD56"/>
<path fill-rule="evenodd" clip-rule="evenodd" d="M222.241 203.773H262.235C263.887 203.773 265.235 205.121 265.235 206.773V231.787C265.235 233.439 263.887 234.787 262.235 234.787H222.241C220.589 234.787 219.241 233.439 219.241 231.787V206.773C219.241 205.12 220.589 203.773 222.241 203.773Z" fill="#A4D4FF"/>
<path fill-rule="evenodd" clip-rule="evenodd" d="M219.241 270.094C215.375 270.094 212.241 266.96 212.241 263.094C212.241 259.228 215.375 256.094 219.241 256.094H437.685C441.551 256.094 444.685 259.228 444.685 263.094C444.685 266.96 441.551 270.094 437.685 270.094H219.241ZM219.241 298.402C215.375 298.402 212.241 295.268 212.241 291.402C212.241 287.536 215.375 284.402 219.241 284.402H437.685C441.551 284.402 444.685 287.536 444.685 291.402C444.685 295.268 441.551 298.402 437.685 298.402H219.241Z" fill="#C7E0EC"/>
</svg>
