<svg width="128" height="128" viewBox="0 0 128 128" fill="none" xmlns="http://www.w3.org/2000/svg">
<path d="M63.9999 88.08C77.2989 88.08 88.0799 77.299 88.0799 64C88.0799 50.701 77.2989 39.92 63.9999 39.92C50.7009 39.92 39.9199 50.701 39.9199 64C39.9199 77.299 50.7009 88.08 63.9999 88.08Z" fill="#AA1439"/>
<path d="M113.14 23.14C113.142 21.5519 112.687 19.9968 111.83 18.6603C110.972 17.3239 109.747 16.2627 108.302 15.6036C106.858 14.9444 105.254 14.7152 103.682 14.9434C102.11 15.1715 100.638 15.8473 99.44 16.89C87.5087 7.91212 72.6171 3.79209 57.7679 5.36065C42.9187 6.92921 29.2166 14.0697 19.4244 25.3422C9.63218 36.6148 4.47832 51.181 5.00203 66.1036C5.52574 81.0262 11.6881 95.1951 22.2464 105.754C32.8048 116.312 46.9738 122.474 61.8964 122.998C76.819 123.522 91.3851 118.368 102.658 108.576C113.93 98.7834 121.071 85.0812 122.639 70.2321C124.208 55.3829 120.088 40.4913 111.11 28.56C112.42 27.0582 113.141 25.1327 113.14 23.14ZM64 121C54.9691 121.007 46.0657 118.869 38.0233 114.761C29.981 110.652 23.0299 104.692 17.7428 97.3703C12.4557 90.0489 8.98391 81.5759 7.61349 72.6496C6.24307 63.7233 7.01324 54.5991 9.86055 46.0288C12.7079 37.4585 17.5508 29.6874 23.9903 23.3557C30.4299 17.0241 38.2817 12.3132 46.8989 9.61116C55.5162 6.9091 64.6521 6.29325 73.5539 7.81433C82.4558 9.33541 90.8689 12.9499 98.1 18.36C96.9701 19.9529 96.4404 21.8943 96.6047 23.8403C96.769 25.7863 97.6167 27.6114 98.9976 28.9923C100.379 30.3733 102.204 31.2209 104.15 31.3852C106.096 31.5495 108.037 31.0198 109.63 29.89C115.957 38.3608 119.803 48.4244 120.739 58.9557C121.675 69.4871 119.663 80.0712 114.928 89.5247C110.194 98.9783 102.923 106.929 93.9292 112.487C84.9354 118.046 74.5728 120.993 64 121Z" fill="#AA1439"/>
</svg>
