<svg width="86" height="86" viewBox="0 0 86 86" fill="none" xmlns="http://www.w3.org/2000/svg">
<path d="M23.5632 21.3741L43.1597 28.6146L37.3116 38.3614C36.7433 39.3065 36.7284 40.4848 37.2727 41.4478C37.8155 42.4078 38.8338 43 39.9374 43H46.0624C46.8744 43 47.6535 42.677 48.2277 42.1028L56.7165 33.614C56.7264 33.6177 56.7324 33.6263 56.7423 33.6301L78.8004 41.7768C79.3716 41.9772 79.9653 42.0759 80.5574 42.0759C81.6445 42.0759 82.7242 41.7439 83.6334 41.0979C85.0375 40.105 85.8749 38.481 85.8749 36.7614C85.8749 28.187 80.046 20.8268 71.7004 18.8649L32.6281 9.67139L27.173 1.48877C26.6048 0.636414 25.6492 0.125 24.6249 0.125H21.5624C20.6443 0.125 19.7755 0.53772 19.1938 1.24652C18.6121 1.95532 18.3788 2.88843 18.5597 3.78864L21.6222 19.1011C21.8301 20.1449 22.5658 21.0032 23.5632 21.3741Z" fill="#AA1439"/>
<path d="M37.3894 56.6138L32.1736 64.4375H52.1875V55.25H39.9377C38.9137 55.25 37.9575 55.7618 37.3894 56.6138Z" fill="#AA1439"/>
<path d="M82.8125 52.1875H58.3125C56.6211 52.1875 55.25 53.5586 55.25 55.25V73.625H52.1875V67.5H30.75V76.6875C30.75 78.3788 32.1211 79.75 33.8125 79.75H36.875C36.875 83.128 39.622 85.875 43 85.875C46.378 85.875 49.125 83.128 49.125 79.75H67.5C67.5 83.128 70.247 85.875 73.625 85.875C77.003 85.875 79.75 83.128 79.75 79.75H82.8125C84.5039 79.75 85.875 78.3788 85.875 76.6875V55.25C85.875 53.5586 84.5039 52.1875 82.8125 52.1875ZM43 82.8125C41.3117 82.8125 39.9375 81.4383 39.9375 79.75C39.9375 78.0617 41.3117 76.6875 43 76.6875C44.6883 76.6875 46.0625 78.0617 46.0625 79.75C46.0625 81.4383 44.6883 82.8125 43 82.8125ZM73.625 82.8125C71.9367 82.8125 70.5625 81.4383 70.5625 79.75C70.5625 78.0617 71.9367 76.6875 73.625 76.6875C75.3133 76.6875 76.6875 78.0617 76.6875 79.75C76.6875 81.4383 75.3133 82.8125 73.625 82.8125Z" fill="#AA1439"/>
<path d="M29.0573 34.1355L16.8073 28.0105C15.946 27.5798 14.9292 27.5798 14.0678 28.0105L1.81783 34.1355C1.71147 34.1888 1.62792 34.2699 1.52979 34.334L15.4376 41.2878L29.3454 34.334C29.2472 34.2699 29.1637 34.1888 29.0573 34.1355Z" fill="#AA1439"/>
<path d="M0.125 52.1872C0.125 53.3476 0.779968 54.4078 1.81775 54.9267L13.9062 61.3747V43.9463L0.125 37.0557V52.1872Z" fill="#AA1439"/>
<path d="M30.75 37.0557L16.9688 43.9463V61.3747L29.0573 54.9267C30.095 54.4078 30.75 53.3476 30.75 52.1872V37.0557Z" fill="#AA1439"/>
<path d="M44.129 9.23156L61.2757 13.2657L54.6369 4.4137C54.0597 3.64209 53.152 3.1875 52.1875 3.1875H46.0625C45.0008 3.1875 44.0154 3.73779 43.4576 4.64099C42.8998 5.54419 42.849 6.67169 43.323 7.61975L44.129 9.23156Z" fill="#AA1439"/>
</svg>
