<svg width="512" height="513" viewBox="0 0 512 513" fill="none" xmlns="http://www.w3.org/2000/svg">
<g clip-path="url(#clip0_2_288)">
<path d="M256.057 482.088L264.572 463.242C266.852 458.195 266.692 452.363 264.062 447.49C254.717 430.172 249.38 410.372 249.305 389.331C249.06 321.207 304.682 265.321 372.806 265.256C441.175 265.191 496.611 320.627 496.548 388.995C496.485 457.12 440.599 512.742 372.475 512.498C351.433 512.423 331.633 507.086 314.315 497.74C309.442 495.11 303.609 494.95 298.563 497.23L279.717 505.745C272.938 508.808 264.97 507.354 259.71 502.094C254.448 496.835 252.994 488.868 256.057 482.088Z" fill="#FFEE6E"/>
<path d="M342.02 388.996C341.972 337.066 373.947 292.606 419.284 274.252C404.932 268.442 389.245 265.241 372.806 265.257C304.682 265.322 249.06 321.208 249.305 389.332C249.381 410.373 254.717 430.173 264.063 447.491C266.693 452.365 266.852 458.197 264.573 463.243L256.058 482.089C252.995 488.868 254.449 496.836 259.709 502.096C264.969 507.356 272.937 508.81 279.716 505.747L298.562 497.232C303.609 494.952 309.441 495.112 314.314 497.742C331.632 507.088 351.432 512.424 372.474 512.5C389.007 512.559 404.815 509.32 419.284 503.417C374.135 485 342.068 440.587 342.02 388.996Z" fill="#FFDA45"/>
<path d="M427.01 408.194V360.548C427.01 330.678 402.796 306.463 372.926 306.463C343.056 306.463 318.842 330.677 318.842 360.548V408.194C308.885 408.194 300.814 416.266 300.814 426.222C300.814 436.179 308.885 444.25 318.842 444.25H345.884C345.884 459.185 357.991 471.292 372.926 471.292C387.861 471.292 399.968 459.185 399.968 444.25H427.01C436.967 444.25 445.038 436.178 445.038 426.222C445.038 416.266 436.967 408.194 427.01 408.194Z" fill="#F5FAFC"/>
<path d="M354.897 426.222C354.897 416.265 362.968 408.194 372.925 408.194V360.548C372.925 340.532 383.806 323.07 399.967 313.717C392.01 309.112 382.779 306.463 372.925 306.463C343.055 306.463 318.84 330.677 318.84 360.548V408.194C308.883 408.194 300.812 416.265 300.812 426.222C300.812 436.179 308.883 444.25 318.84 444.25H345.882C345.882 459.185 357.989 471.292 372.924 471.292C387.859 471.292 399.966 459.185 399.966 444.25H372.924C362.969 444.25 354.897 436.179 354.897 426.222Z" fill="#E1F1FA"/>
<path d="M280.572 365.245L270.638 343.258C267.978 337.37 268.164 330.566 271.232 324.88C282.135 304.676 288.361 281.576 288.449 257.028C288.734 177.55 223.843 112.349 144.364 112.274C64.6021 112.199 -0.0739366 176.874 6.34378e-05 256.637C0.0740634 336.116 65.2741 401.009 144.752 400.724C169.301 400.636 192.401 394.41 212.605 383.507C218.291 380.439 225.095 380.252 230.983 382.913L252.97 392.847C260.879 396.42 270.175 394.724 276.312 388.587C282.449 382.45 284.146 373.154 280.572 365.245Z" fill="#FF808C"/>
<path d="M82.4151 256.637C82.3541 191.281 125.769 136.065 185.332 118.288C172.335 114.396 158.586 112.288 144.366 112.274C64.6021 112.199 -0.0739366 176.874 6.34378e-05 256.637C0.0740634 336.116 65.2741 401.009 144.753 400.724C158.923 400.673 172.604 398.567 185.53 394.707C126.131 376.913 82.4751 321.661 82.4151 256.637Z" fill="#FF6E7C"/>
<path d="M202.162 195.484C170.144 181.254 144.225 210.222 144.225 210.222C144.225 210.222 118.306 181.254 86.2878 195.484C54.2698 209.714 54.2698 256.978 82.7308 288.488C102.426 310.293 124.311 323.579 135.923 329.695C141.124 332.434 147.326 332.434 152.527 329.695C164.14 323.579 186.025 310.292 205.719 288.488C234.18 256.979 234.18 209.714 202.162 195.484Z" fill="#F5FAFC"/>
<path d="M134.493 261.651C134.493 243.494 137.945 226.144 144.227 210.22C144.227 210.22 118.306 181.254 86.2879 195.484C54.2699 209.714 54.2699 256.978 82.7299 288.488C102.425 310.293 124.31 323.579 135.922 329.695C141.011 332.375 147.056 332.426 152.187 329.861C140.922 309.671 134.493 286.414 134.493 261.651Z" fill="#E1F1FA"/>
<path d="M191.346 289.609L202.699 264.481C205.739 257.752 205.526 249.976 202.02 243.478C189.56 220.387 182.444 193.988 182.343 165.933C182.017 75.101 256.179 0.585953 347.011 0.499953C438.169 0.413953 512.085 74.3279 512 165.486C511.915 256.319 437.401 330.482 346.569 330.157C318.513 330.057 292.113 322.941 269.022 310.48C262.524 306.974 254.748 306.76 248.019 309.801L222.891 321.154C213.852 325.238 203.229 323.299 196.215 316.285C189.201 309.272 187.262 298.648 191.346 289.609Z" fill="#69A8FF"/>
<path d="M275.059 165.486C274.989 90.4819 325.02 27.163 393.529 7.12095C378.774 2.80395 363.165 0.48495 347.011 0.49995C256.179 0.58595 182.017 75.101 182.343 165.933C182.444 193.988 189.559 220.387 202.02 243.478C205.526 249.976 205.74 257.752 202.699 264.481L191.346 289.609C187.262 298.648 189.201 309.271 196.214 316.285C203.228 323.299 213.851 325.237 222.89 321.153L248.018 309.8C254.747 306.76 262.523 306.973 269.021 310.479C292.112 322.94 318.512 330.055 346.568 330.156C362.86 330.214 378.622 327.865 393.528 323.464C325.327 303.33 275.128 240.027 275.059 165.486Z" fill="#549CFF"/>
<path d="M456.221 148.468C456.221 129.266 440.655 113.699 421.452 113.699H387.155L406.166 86.268C410.626 79.832 410.371 71.044 405.115 65.24C398.863 58.337 388.345 57.917 381.576 64.026C381.576 64.026 340.407 101.176 319.794 119.777C312.488 126.37 308.319 135.749 308.319 145.589V210.398C308.319 229.6 323.885 245.167 343.088 245.167H421.454C440.656 245.167 456.223 229.601 456.223 210.398V148.468H456.221Z" fill="#F5FAFC"/>
<path d="M387.155 113.7L406.166 86.2689C410.626 79.8329 410.371 71.0449 405.115 65.2419C398.863 58.3389 388.345 57.9189 381.576 64.0279C381.576 64.0279 340.407 101.178 319.794 119.779C312.488 126.372 308.319 135.751 308.319 145.591V210.4C308.319 229.602 323.885 245.169 343.088 245.169H387.155C367.954 245.168 352.388 229.602 352.388 210.4V148.469C352.386 129.266 367.953 113.7 387.155 113.7Z" fill="#E1F1FA"/>
<path d="M270.974 245.168H299.304C310.683 245.168 319.908 235.943 319.908 224.564V126.697C319.908 115.318 310.683 106.093 299.304 106.093H270.974C259.595 106.093 250.37 115.318 250.37 126.697V224.564C250.37 235.943 259.595 245.168 270.974 245.168Z" fill="#F5FAFC"/>
</g>
<defs>
<clipPath id="clip0_2_288">
<rect width="512" height="512" fill="white" transform="translate(0 0.5)"/>
</clipPath>
</defs>
</svg>
