<svg width="800" height="800" viewBox="0 0 800 800" fill="none" xmlns="http://www.w3.org/2000/svg">
<path d="M266.2 643.35C262.298 636.159 260.916 627.868 262.275 619.8H96.175L342.9 185.425L446.875 370.675L479.575 346.275L376.9 161.675C373.466 155.364 368.532 149.994 362.533 146.04C356.534 142.086 349.654 139.668 342.5 139C335.296 139.297 328.322 141.623 322.382 145.71C316.442 149.797 311.778 155.478 308.925 162.1L58.925 601.925C55.1225 608.091 52.9304 615.113 52.5504 622.347C52.1703 629.581 53.6144 636.795 56.75 643.325C60.5525 649.384 65.9817 654.251 72.418 657.372C78.8542 660.493 86.0382 661.741 93.15 660.975H302.5C295.402 661.765 288.225 660.544 281.788 657.449C275.352 654.355 269.915 649.512 266.1 643.475L266.2 643.35Z" fill="#00C58E"/>
<path d="M740.9 602.8L539.725 245.575C536.455 239.261 531.646 233.874 525.742 229.911C519.839 225.947 513.032 223.536 505.95 222.9C498.913 223.199 492.104 225.488 486.316 229.501C480.528 233.515 475.997 239.089 473.25 245.575L446.65 288.075V370.575L505.925 268.8L704.7 620.575H629.075C630.279 627.697 629.212 635.018 626.025 641.5L625.375 642.8C621.28 648.607 615.815 653.316 609.466 656.507C603.117 659.699 596.079 661.277 588.975 661.1H707.325C714.432 661.297 721.478 659.728 727.83 656.535C734.182 653.341 739.644 648.622 743.725 642.8C746.92 636.49 748.325 629.426 747.788 622.374C747.25 615.322 744.79 608.552 740.675 602.8H740.9Z" fill="#108775"/>
<path d="M630.825 642.5L631.475 641.2L633.225 637.725C635.358 632.149 635.887 626.086 634.75 620.225C633.633 613.828 631.345 607.691 628 602.125L470.85 329.625L447.1 288.225H446.675L422.7 329.425L265.775 601.925C262.717 607.483 260.653 613.532 259.675 619.8C258.194 627.842 259.499 636.149 263.375 643.35C267.325 649.411 272.881 654.256 279.422 657.346C285.964 660.436 293.235 661.649 300.425 660.85H593.125C600.445 661.083 607.711 659.516 614.284 656.286C620.857 653.056 626.537 648.262 630.825 642.325V642.5ZM446.65 370.9L590.5 620H302.8L446.65 370.9Z" fill="#2F495E"/>
</svg>
