<svg width="682" height="682" viewBox="0 0 682 682" fill="none" xmlns="http://www.w3.org/2000/svg">
<g clip-path="url(#clip0_2_96)">
<path d="M1.33057 113.581V480.15C1.33057 512.753 27.758 539.18 60.3609 539.18H622.703C655.306 539.18 681.733 512.753 681.733 480.15V113.581C681.733 81.321 655.587 55.1743 623.327 55.1743H59.7371C27.4773 55.1743 1.33057 81.321 1.33057 113.581Z" fill="#C4E2F2"/>
<path d="M478.771 617.948L341.535 649.22L204.288 617.948L223.089 539.185L335.708 497.777L459.97 539.185L466.051 564.682L478.771 617.948Z" fill="#2D303B"/>
<path d="M681.739 473.2V480.145C681.739 512.748 655.301 539.185 622.698 539.185H60.3611C27.7582 539.185 1.33594 512.748 1.33594 480.145V473.2H681.739Z" fill="#3C3F4D"/>
<path d="M478.772 617.948H268.859L281.579 564.682H466.052L478.772 617.948Z" fill="#3C3F4D"/>
<path d="M559.655 661.8V680.503H123.42V661.8C123.42 637.581 143.053 617.948 167.272 617.948H515.803C540.021 617.948 559.655 637.581 559.655 661.8Z" fill="#2D303B"/>
<path d="M559.655 661.8V680.503H198.388V661.8C198.388 637.581 218.021 617.948 242.255 617.948H515.803C540.021 617.948 559.655 637.581 559.655 661.8Z" fill="#3C3F4D"/>
<path d="M124.854 132.424H402.774L438.184 473.2H89.4497L124.854 132.424Z" fill="#FF491F"/>
<path d="M261.504 242.604H454.694L479.302 473.2H236.896L261.504 242.604Z" fill="#ED3618"/>
<path d="M287.89 242.604H481.074L505.687 473.2H263.276L287.89 242.604Z" fill="#FFE14D"/>
<path d="M338.796 176.167C333.041 176.167 328.384 171.504 328.384 165.75V97.0247C328.384 61.4225 299.419 32.4583 263.817 32.4583C228.215 32.4583 199.251 61.4225 199.251 97.0247V165.75C199.251 171.499 194.588 176.161 188.839 176.161C183.085 176.161 178.422 171.499 178.422 165.75V97.0247C178.422 49.9345 216.732 11.6293 263.817 11.6293C310.902 11.6293 349.213 49.9397 349.213 97.0247V165.75C349.213 171.504 344.55 176.167 338.796 176.167Z" fill="#3C3F4D"/>
<path d="M384.482 384.629C354.047 384.629 329.288 359.87 329.288 329.434V284.657C329.288 278.903 333.951 274.24 339.705 274.24C345.454 274.24 350.117 278.903 350.117 284.657V329.434C350.117 348.387 365.535 363.799 384.482 363.799C403.429 363.799 418.847 348.387 418.847 329.434V284.657C418.847 278.903 423.51 274.24 429.264 274.24C435.013 274.24 439.676 278.903 439.676 284.657V329.434C439.676 359.87 414.917 384.629 384.482 384.629Z" fill="white"/>
<path d="M633.141 100.975C633.141 157.204 587.559 202.781 531.335 202.781C475.107 202.781 429.529 157.204 429.529 100.975C429.529 44.752 475.107 -0.830719 531.335 -0.830719C587.559 -0.830719 633.141 44.752 633.141 100.975Z" fill="#32CC77"/>
<path d="M520.664 162.703C516.89 162.703 513.402 160.655 511.562 157.344L483.788 107.353C480.996 102.327 482.805 95.985 487.837 93.1936C492.869 90.4022 499.206 92.2112 501.997 97.243L520.05 129.731L559.899 47.7565C562.41 42.5843 568.637 40.4271 573.82 42.943C578.992 45.4589 581.144 51.6915 578.628 56.8637L530.031 156.84C528.331 160.333 524.832 162.589 520.949 162.698C520.856 162.698 520.762 162.703 520.664 162.703Z" fill="white"/>
<path d="M643.636 284.907H543.66C537.911 284.907 533.248 280.244 533.248 274.495C533.248 268.741 537.911 264.078 543.66 264.078H643.636C649.391 264.078 654.048 268.741 654.048 274.495C654.048 280.244 649.385 284.907 643.636 284.907Z" fill="#3C3F4D"/>
<path d="M643.636 333.51H564.494C558.74 333.51 554.077 328.847 554.077 323.098C554.077 317.344 558.74 312.681 564.494 312.681H643.636C649.391 312.681 654.048 317.344 654.048 323.098C654.048 328.847 649.385 333.51 643.636 333.51Z" fill="#3C3F4D"/>
</g>
<defs>
<clipPath id="clip0_2_96">
<rect width="681.333" height="681.333" fill="white" transform="translate(0 0.5)"/>
</clipPath>
</defs>
</svg>
