<svg width="800" height="800" viewBox="0 0 800 800" fill="none" xmlns="http://www.w3.org/2000/svg">
<path fill-rule="evenodd" clip-rule="evenodd" d="M655.444 150.638C658.34 150.882 661.844 153.096 662.395 157.096C662.937 161.096 749.277 744.814 749.277 744.814L503.332 798.019L49.4192 712.973C49.4192 712.973 107.671 262.482 109.871 246.6C112.795 225.622 113.499 224.921 135.762 217.937C139.381 216.8 167.715 208.014 207.6 195.655C222.975 130.449 272.014 2.13422 374.658 2.13422C388.066 2.13422 403.589 9.33422 416.121 25.9068C417.373 25.8356 418.625 25.7863 419.841 25.7863C463.904 25.7863 488.951 63.315 503.143 104.153C517.636 99.6685 526.397 96.9644 526.918 96.8109C530.455 95.7698 539.567 94.3507 544.233 99.0164C548.896 103.685 591.381 145.863 591.381 145.863C591.381 145.863 652.553 150.397 655.444 150.638ZM439.647 123.8L478.055 111.912C468.323 82.1835 453.203 56.3507 430.499 53.5013C436.151 69.7013 439.674 90.137 439.674 115.518C439.674 118.382 439.661 121.005 439.647 123.666L439.647 123.8ZM412.751 127.679C412.751 97.0493 408.647 74.3507 402.334 58.5342C377.304 69.2739 348.674 97.7452 333.4 156.693C348.377 152.053 363.337 147.421 377.926 142.904C389.835 139.217 401.498 135.606 412.723 132.129L412.724 132.076C412.737 130.644 412.751 129.227 412.751 127.679ZM385.003 34.1096C380.732 31.1698 376.268 29.6657 371.838 29.6657C298.112 29.6657 256.696 126.466 239.255 185.849L301.956 166.43C316.847 88.5753 352.107 49.589 385.003 34.1096ZM389.515 376.742L419.841 286.534C419.841 286.534 399.343 274.649 357.849 274.649C250.162 274.649 196.814 346.575 196.814 420.901C196.814 470.51 224.619 493.008 248.99 512.726C268.002 528.108 284.923 541.799 284.923 565.351C284.923 578.342 275.737 596.123 253.153 596.123C218.592 596.123 177.633 560.959 177.633 560.959L156.77 629.89C156.77 629.89 196.616 678.384 274.534 678.384C339.466 678.384 387.622 629.493 387.622 553.567C387.622 495.2 348.336 466.359 317.285 443.565C296.997 428.671 280.225 416.358 280.225 400.077C280.225 392.526 282.627 362.562 330.375 362.562C362.945 362.562 389.515 376.742 389.515 376.742Z" fill="#AA1439" fill-opacity="0.5"/>
<path d="M655.444 150.638C652.553 150.397 591.381 145.863 591.381 145.863C591.381 145.863 548.896 103.685 544.233 99.0164C542.488 97.2795 540.134 96.3891 537.674 96.0055L503.353 798.014L749.277 744.814C749.277 744.814 662.937 161.096 662.395 157.096C661.844 153.096 658.34 150.882 655.444 150.638Z" fill="#AA1439"/>
</svg>
