<svg width="682" height="682" viewBox="0 0 682 682" fill="none" xmlns="http://www.w3.org/2000/svg">
<g clip-path="url(#clip0_2_242)">
<path d="M341.868 615.682C189.697 615.682 65.8921 491.882 65.8921 339.706C65.8921 187.535 189.697 63.7356 341.868 63.7356C494.039 63.7356 617.838 187.535 617.838 339.706C617.838 491.882 494.039 615.682 341.868 615.682ZM341.868 86.2073C202.084 86.2073 88.3689 199.927 88.3689 339.706C88.3689 479.49 202.084 593.205 341.868 593.205C481.646 593.205 595.366 479.49 595.366 339.706C595.366 199.927 481.646 86.2073 341.868 86.2073Z" fill="#AA1439"/>
<path d="M255.843 126.425C255.843 196.705 198.866 253.682 128.587 253.682C58.3024 253.682 1.33057 196.705 1.33057 126.425C1.33057 56.1463 58.3024 -0.83075 128.587 -0.83075C198.866 -0.83075 255.843 56.1463 255.843 126.425Z" fill="#AA1439"/>
<path d="M128.587 -0.83075C121.19 -0.83075 113.944 -0.191375 106.89 1.0198C166.835 11.3174 212.454 63.5381 212.454 126.425C212.454 189.313 166.835 241.534 106.89 251.831C113.944 253.042 121.19 253.682 128.587 253.682C198.866 253.682 255.843 196.705 255.843 126.425C255.843 56.1463 198.866 -0.83075 128.587 -0.83075Z" fill="#AA1439"/>
<path d="M682.41 126.425C682.41 196.705 625.438 253.682 555.153 253.682C484.874 253.682 427.902 196.705 427.902 126.425C427.902 56.1463 484.874 -0.83075 555.153 -0.83075C625.438 -0.83075 682.41 56.1463 682.41 126.425Z" fill="#AA1439"/>
<path d="M682.357 122.782C680.346 52.5284 621.762 -2.79045 551.514 -0.778767C544.819 -0.586435 538.264 0.120515 531.876 1.3005C589.586 11.9879 634.04 61.7447 635.787 122.782C637.611 186.339 592.502 240.343 531.865 251.545C540.577 253.162 549.586 253.89 558.797 253.63C629.05 251.613 684.369 193.035 682.357 122.782Z" fill="#AA1439"/>
<path d="M255.843 553.246C255.843 623.531 198.866 680.503 128.587 680.503C58.3024 680.503 1.33057 623.531 1.33057 553.246C1.33057 482.967 58.3024 425.99 128.587 425.99C198.866 425.99 255.843 482.967 255.843 553.246Z" fill="#AA1439"/>
<path d="M128.587 425.99C118.731 425.99 109.135 427.113 99.9243 429.234C156.402 442.235 198.518 492.823 198.518 553.246C198.518 613.675 156.402 664.258 99.9243 677.259C109.135 679.38 118.731 680.503 128.587 680.503C198.866 680.503 255.843 623.531 255.843 553.246C255.843 482.967 198.866 425.99 128.587 425.99Z" fill="#AA1439"/>
<path d="M682.41 553.246C682.41 623.531 625.438 680.503 555.153 680.503C484.874 680.503 427.902 623.531 427.902 553.246C427.902 482.967 484.874 425.99 555.153 425.99C625.438 425.99 682.41 482.967 682.41 553.246Z" fill="#AA1439"/>
<path d="M555.158 425.99C546.368 425.99 537.791 426.884 529.505 428.579C587.491 440.446 631.109 491.752 631.109 553.246C631.109 614.741 587.491 666.047 529.505 677.914C537.791 679.609 546.368 680.503 555.158 680.503C625.437 680.503 682.409 623.531 682.409 553.246C682.409 482.967 625.437 425.99 555.158 425.99Z" fill="#AA1439"/>
<path d="M188.724 76.8974C183.869 79.8239 178.666 82.1371 173.223 83.7745C163.097 72.1307 145.455 70.9039 133.811 81.0299C127.615 86.4204 124.101 94.2644 124.21 102.483V108.715C103.043 109.266 82.947 99.7017 70.0244 83.0832C69.1459 81.9552 67.3629 82.2411 66.8951 83.5874C62.6586 95.7147 51.0823 140.117 99.2693 161.534C88.4571 168.868 75.9087 173.131 62.9549 173.926C61.0628 174.041 60.5585 176.593 62.2791 177.388C117.021 202.672 180.335 171.187 180.335 102.29C180.329 100.554 180.158 98.8232 179.836 97.1182C184.992 92.0292 188.922 85.8538 191.355 79.0702C191.921 77.4848 190.169 76.0293 188.724 76.8974Z" fill="white"/>
<path d="M546.186 207.08C539.98 207.08 534.948 202.048 534.948 195.842V85.204C534.948 63.4601 552.637 45.7708 574.381 45.7708H587.688C593.895 45.7708 598.927 50.8026 598.927 57.0092C598.927 63.2158 593.895 68.2424 587.688 68.2424H574.381C565.03 68.2424 557.419 75.8525 557.419 85.204V195.842C557.419 202.048 552.388 207.08 546.186 207.08Z" fill="white"/>
<path d="M572.338 135.491H521.329C515.122 135.491 510.09 130.459 510.09 124.253C510.09 118.046 515.122 113.014 521.329 113.014H572.338C578.545 113.014 583.577 118.046 583.577 124.253C583.577 130.459 578.545 135.491 572.338 135.491Z" fill="white"/>
<path d="M101.396 551.853V511.432C101.396 508.454 104.613 506.598 107.191 508.085L142.18 528.295L177.174 548.506C179.747 549.998 179.747 553.714 177.174 555.206L142.18 575.417L107.191 595.627C104.613 597.114 101.396 595.253 101.396 592.279V551.853Z" fill="white"/>
<path d="M599.826 627.024H510.485C494.439 627.024 481.381 613.966 481.381 597.919V508.579C481.381 492.527 494.439 479.474 510.485 479.474H599.826C615.873 479.474 628.931 492.527 628.931 508.579V597.919C628.931 613.966 615.873 627.024 599.826 627.024ZM510.485 501.946C506.826 501.946 503.853 504.919 503.853 508.579V597.919C503.853 601.574 506.826 604.547 510.485 604.547H599.826C603.48 604.547 606.459 601.574 606.459 597.919V508.579C606.459 504.919 603.48 501.946 599.826 501.946H510.485Z" fill="white"/>
<path d="M555.153 585.283C537.49 585.283 523.122 570.91 523.122 553.246C523.122 535.583 537.49 521.215 555.153 521.215C572.816 521.215 587.189 535.583 587.189 553.246C587.189 570.91 572.816 585.283 555.153 585.283ZM555.153 543.687C549.882 543.687 545.594 547.976 545.594 553.246C545.594 558.517 549.882 562.806 555.153 562.806C560.429 562.806 564.713 558.517 564.713 553.246C564.718 547.976 560.429 543.687 555.153 543.687Z" fill="white"/>
<path d="M302.148 442.058L298.078 363.758C297.756 357.562 292.48 352.816 286.273 353.122C280.077 353.445 275.315 358.731 275.638 364.927L279.708 443.227C280.02 449.226 284.979 453.878 290.92 453.878C291.118 453.878 291.31 453.873 291.513 453.863C297.709 453.541 302.47 448.259 302.148 442.058Z" fill="#AA1439"/>
<path d="M314.759 364.345H267.684C261.972 364.345 257.345 359.714 257.345 354.001V300.002C257.345 294.295 261.972 289.663 267.684 289.663H314.759C315.648 289.663 316.37 290.386 316.37 291.275V362.734C316.37 363.623 315.648 364.345 314.759 364.345Z" fill="#AA1439"/>
<path d="M416.269 400.254C402.281 391.682 384.841 382.482 364.059 374.492C346.624 367.786 330.452 363.326 316.371 360.312C316.371 338.105 316.371 315.904 316.371 293.702C330.494 290.698 346.754 286.233 364.303 279.475C385.012 271.496 402.369 262.3 416.269 253.754V400.254Z" fill="#AA1439"/>
<path d="M416.269 421.93C410.062 421.93 405.03 416.899 405.03 410.692V243.316C405.03 237.11 410.062 232.078 416.269 232.078C422.475 232.078 427.507 237.11 427.507 243.316V410.692C427.507 416.899 422.475 421.93 416.269 421.93Z" fill="#AA1439"/>
</g>
<defs>
<clipPath id="clip0_2_242">
<rect width="681.333" height="681.333" fill="white" transform="translate(0 0.5)"/>
</clipPath>
</defs>
</svg>
