<svg width="512" height="513" viewBox="0 0 512 513" fill="none" xmlns="http://www.w3.org/2000/svg">
<g clip-path="url(#clip0_2_147)">
<path d="M404.599 219.167V468.808H90.752V219.167C90.752 206.951 100.655 197.048 112.871 197.048H382.48C394.696 197.048 404.599 206.951 404.599 219.167Z" fill="#39484C"/>
<path d="M124.877 230.657H370.472V435.199H124.877V230.657Z" fill="white"/>
<path d="M423.524 468.809H71.8276V490.62C71.8276 502.704 81.6235 512.5 93.708 512.5H401.643C413.728 512.5 423.524 502.704 423.524 490.62V468.809Z" fill="#617A7F"/>
<path d="M492.308 241.539H307.484C296.609 241.539 287.792 232.723 287.792 221.847V81.0798H512V221.847C512 232.723 503.183 241.539 492.308 241.539Z" fill="#8383FF"/>
<path d="M334.383 166.258L375.869 187.705V175.235L350.069 162.255L375.869 149.274V136.805L334.383 158.252V166.258Z" fill="white"/>
<path d="M384.176 188.691H396.084L419.73 127.239H407.74L384.176 188.691Z" fill="white"/>
<path d="M423.923 136.815V149.281L449.91 162.255L423.923 175.229V187.695L465.108 166.491L465.408 166.337V158.173L423.923 136.815Z" fill="white"/>
<path d="M512 81.0798H287.792V59.9467C287.792 49.0711 296.609 40.2544 307.484 40.2544H490.12C502.204 40.2544 512 50.0502 512 62.1347V81.0798Z" fill="#4646F9"/>
<path d="M486.992 66.7263C490.326 66.7263 493.029 64.0138 493.029 60.6677C493.029 57.3216 490.326 54.609 486.992 54.609C483.658 54.609 480.955 57.3216 480.955 60.6677C480.955 64.0138 483.658 66.7263 486.992 66.7263Z" fill="white"/>
<path d="M461.122 66.7263C464.456 66.7263 467.159 64.0138 467.159 60.6677C467.159 57.3216 464.456 54.609 461.122 54.609C457.788 54.609 455.085 57.3216 455.085 60.6677C455.085 64.0138 457.788 66.7263 461.122 66.7263Z" fill="white"/>
<path d="M435.251 66.7263C438.585 66.7263 441.288 64.0138 441.288 60.6677C441.288 57.3216 438.585 54.609 435.251 54.609C431.917 54.609 429.214 57.3216 429.214 60.6677C429.214 64.0138 431.917 66.7263 435.251 66.7263Z" fill="white"/>
<path d="M319.562 344.696V321.313L302.955 317.253C301.743 312.97 300.044 308.894 297.927 305.08L306.829 290.418L290.294 273.883L275.672 282.76C271.865 280.631 267.793 278.92 263.515 277.695L259.444 261.041H236.059L231.999 277.648C227.716 278.861 223.64 280.56 219.826 282.677L205.164 273.775L188.629 290.309L197.506 304.931C195.377 308.738 193.666 312.81 192.442 317.089L175.788 321.16V344.544L192.395 348.604C193.607 352.887 195.306 356.965 197.423 360.777L188.521 375.439L205.056 391.974L219.677 383.097C223.485 385.226 227.556 386.937 231.835 388.162L235.906 404.816H259.291L263.351 388.209C267.634 386.997 271.711 385.298 275.524 383.181L290.186 392.083L306.721 375.548L297.844 360.926C299.973 357.119 301.684 353.047 302.908 348.768L319.562 344.696Z" fill="#53D390"/>
<path d="M247.675 360.936C263.144 360.936 275.683 348.396 275.683 332.928C275.683 317.46 263.144 304.92 247.675 304.92C232.207 304.92 219.667 317.46 219.667 332.928C219.667 348.396 232.207 360.936 247.675 360.936Z" fill="white"/>
<path d="M198.342 120.529C198.342 77.3623 163.313 42.3702 120.103 42.3702C76.8921 42.3702 41.8628 77.3634 41.8628 120.529C41.8628 143.781 52.0295 164.657 68.163 178.971C81.8371 191.103 90.1188 208.317 90.1188 226.766V244.628H150.086V226.766C150.086 208.316 158.368 191.103 172.042 178.971C188.176 164.657 198.342 143.781 198.342 120.529Z" fill="#FFBF4D"/>
<path d="M67.0165 125.999C63.9948 125.999 61.5464 123.55 61.5464 120.529C61.5464 88.4425 87.8148 62.3382 120.103 62.3382C123.124 62.3382 125.573 64.7877 125.573 67.8083C125.573 70.8289 123.124 73.2784 120.103 73.2784C93.8472 73.2784 72.4866 94.4749 72.4866 120.529C72.4866 123.55 70.0381 125.999 67.0165 125.999Z" fill="white"/>
<path d="M141.33 133.811C141.33 122.103 131.945 112.613 120.369 112.613C108.794 112.613 99.4092 122.103 99.4092 133.811C99.4092 143.629 106.017 151.864 114.974 154.275C114.941 154.518 114.899 154.759 114.899 155.01V205.684C114.899 208.705 117.348 211.154 120.369 211.154C123.391 211.154 125.84 208.705 125.84 205.684V155.01C125.84 154.759 125.798 154.518 125.765 154.275C134.722 151.864 141.33 143.629 141.33 133.811Z" fill="white"/>
<path d="M150.412 205.684H90.3256C80.6501 205.684 72.8071 213.527 72.8071 223.202V223.585C72.8071 233.261 80.6501 241.104 90.3256 241.104H150.412C160.088 241.104 167.931 233.261 167.931 223.585V223.202C167.931 213.528 160.088 205.684 150.412 205.684Z" fill="#4646F9"/>
<path d="M150.995 241.104H89.7437V260.46C89.7437 266.503 94.6416 271.4 100.684 271.4H140.055C146.098 271.4 150.995 266.503 150.995 260.46V241.104Z" fill="#5252FF"/>
<path d="M120.176 21.0697C117.154 21.0697 114.706 18.6202 114.706 15.5996V5.97009C114.706 2.9495 117.154 0.5 120.176 0.5C123.197 0.5 125.646 2.9495 125.646 5.97009V15.5996C125.646 18.6202 123.196 21.0697 120.176 21.0697Z" fill="#FFBF4D"/>
<path d="M38.5814 57.3703C37.1668 57.3703 35.7533 56.8244 34.6823 55.7369L27.9825 48.9277C25.8634 46.7747 25.8919 43.3111 28.046 41.192C30.1979 39.0739 33.6605 39.1002 35.7818 41.2543L42.4816 48.0635C45.6892 51.3258 43.1467 57.3703 38.5814 57.3703Z" fill="#FFBF4D"/>
<path d="M14.9443 114.944H5.47009C2.44841 114.944 0 112.495 0 109.474C0 106.453 2.44841 104.004 5.47009 104.004H14.9443C17.966 104.004 20.4144 106.453 20.4144 109.474C20.4144 112.495 17.966 114.944 14.9443 114.944Z" fill="#FFBF4D"/>
<path d="M235.267 114.55H225.794C222.773 114.55 220.324 112.101 220.324 109.08C220.324 106.06 222.773 103.61 225.794 103.61H235.267C238.289 103.61 240.737 106.06 240.737 109.08C240.737 112.101 238.289 114.55 235.267 114.55Z" fill="#FFBF4D"/>
<path d="M201.882 57.0924C197.316 57.0924 194.774 51.0468 197.983 47.7856L204.683 40.9764C206.804 38.8223 210.267 38.796 212.419 40.9141C214.573 43.0332 214.6 46.4968 212.482 48.6499L205.783 55.459C204.71 56.5465 203.297 57.0924 201.882 57.0924Z" fill="#FFBF4D"/>
<path d="M512 433.883V403.304L490.283 397.995C488.697 392.394 486.475 387.062 483.706 382.077L495.348 362.903L473.725 341.28L454.604 352.888C449.627 350.104 444.301 347.867 438.706 346.266L433.382 324.487H402.803L397.493 346.204C391.893 347.789 386.561 350.011 381.576 352.78L362.402 341.139L340.779 362.762L352.387 381.882C349.603 386.86 347.366 392.185 345.765 397.78L323.985 403.105V433.684L345.703 438.993C347.288 444.593 349.51 449.925 352.279 454.911L340.637 474.085L362.261 495.708L381.381 484.099C386.359 486.884 391.684 489.121 397.279 490.721L402.604 512.5H433.182L438.492 490.783C444.092 489.197 449.424 486.975 454.41 484.206L473.583 495.848L495.207 474.225L483.598 455.105C486.382 450.127 488.62 444.801 490.22 439.206L512 433.883Z" fill="#ED5132"/>
<path d="M417.993 467.735C445.189 467.735 467.235 445.689 467.235 418.493C467.235 391.298 445.189 369.252 417.993 369.252C390.798 369.252 368.751 391.298 368.751 418.493C368.751 445.689 390.798 467.735 417.993 467.735Z" fill="white"/>
<path d="M417.993 438.401C407.016 438.401 398.085 429.471 398.085 418.493C398.085 407.516 407.016 398.585 417.993 398.585C428.971 398.585 437.901 407.516 437.901 418.493C437.901 429.471 428.971 438.401 417.993 438.401Z" fill="#E2E2E2"/>
<path d="M269.405 20.584L277.88 22.3803L268.079 25.1602C262.917 26.624 258.976 30.8043 257.817 36.0435L256 44.2607L254.183 36.0435C253.024 30.8043 249.083 26.624 243.921 25.1602L234.12 22.3803L242.595 20.584C248.083 19.421 252.416 15.2156 253.743 9.76523L256 0.5L258.257 9.76633C259.584 15.2156 263.918 19.421 269.405 20.584Z" fill="#C2C2FF"/>
<path d="M46.2253 288.427L54.7006 290.223L44.8993 293.003C39.7378 294.467 35.796 298.647 34.6374 303.886L32.8203 312.103L31.0031 303.886C29.8446 298.647 25.9028 294.467 20.7412 293.003L10.9399 290.223L19.4153 288.427C24.9029 287.264 29.2363 283.058 30.5633 277.608L32.8203 268.342L35.0772 277.608C36.4043 283.057 40.7388 287.264 46.2253 288.427Z" fill="#FF8A80"/>
</g>
<defs>
<clipPath id="clip0_2_147">
<rect width="512" height="512" fill="white" transform="translate(0 0.5)"/>
</clipPath>
</defs>
</svg>
