<svg width="128" height="128" viewBox="0 0 128 128" fill="none" xmlns="http://www.w3.org/2000/svg">
<path d="M126.33 34.06C126.329 31.4301 126.065 28.807 125.54 26.23C125.015 23.5919 124.123 21.0404 122.89 18.65C121.601 16.3346 119.999 14.208 118.13 12.33C116.202 10.4434 113.962 8.90408 111.51 7.77999C109.09 6.55969 106.502 5.70699 103.83 5.24999C101.18 4.73999 98.27 4.73999 95.62 4.48999H30.25C28.2109 4.52319 26.1763 4.69358 24.16 4.99999C22.1591 5.23554 20.2005 5.74707 18.34 6.51999C17.81 6.76999 17.02 7.02999 16.49 7.27999C14.7298 8.22355 13.0566 9.32117 11.49 10.56C10.96 11.07 10.43 11.32 9.90001 11.82C7.95107 13.6277 6.33929 15.7677 5.14001 18.14C3.83034 20.4968 2.93405 23.0605 2.49001 25.72C2.09593 28.3151 1.83227 30.9284 1.70001 33.55V93.94C1.70083 96.5698 1.96549 99.193 2.49001 101.77C3.01479 104.408 3.90681 106.96 5.14001 109.35C6.4288 111.665 8.03053 113.792 9.90001 115.67C11.8282 117.557 14.0678 119.096 16.52 120.22C18.9401 121.44 21.5285 122.293 24.2 122.75C26.85 123.26 29.76 123.26 32.41 123.51H95.63C98.3841 123.508 101.132 123.254 103.84 122.75C106.512 122.293 109.1 121.44 111.52 120.22C113.92 119.006 116.146 117.475 118.14 115.67C120.089 113.862 121.701 111.722 122.9 109.35C124.21 106.993 125.106 104.429 125.55 101.77C125.944 99.1748 126.208 96.5616 126.34 93.94V34.06H126.33Z" fill="#F05138"/>
<path d="M85 96.5C73.89 102.63 58.62 103.26 43.25 96.97C31.2662 92.1076 21.0199 83.7566 13.84 73C17.1768 75.5542 20.8222 77.6776 24.69 79.32C40.56 86.42 56.42 85.93 67.59 79.32C51.69 67.66 38.19 52.5 28.13 40.12C26.1448 38.0278 24.3727 35.7432 22.84 33.3C35 43.91 54.34 57.3 61.22 61.09C51.3968 51.0249 42.3697 40.2124 34.22 28.75C47.7671 41.9149 62.6741 53.6037 78.69 63.62C79.4 64 79.95 64.32 80.39 64.62C80.8595 63.4739 81.2635 62.302 81.6 61.11C85.31 48.22 81.07 33.57 71.81 21.44C93.25 33.81 106 57.05 100.66 76.51C100.52 77.04 100.37 77.51 100.21 78.06L100.4 78.28C110.99 90.91 108.08 104.28 106.75 101.78C101 91 90.37 94.33 85 96.5Z" fill="#FEFEFE"/>
</svg>
