<svg width="64" height="64" viewBox="0 0 64 64" fill="none" xmlns="http://www.w3.org/2000/svg">
<path d="M26 12V32C26 32.5304 25.7893 33.0391 25.4142 33.4142C25.0391 33.7893 24.5304 34 24 34H4C3.46957 34 2.96086 33.7893 2.58579 33.4142C2.21071 33.0391 2 32.5304 2 32V12C2 11.4696 2.21071 10.9609 2.58579 10.5858C2.96086 10.2107 3.46957 10 4 10H24C24.5304 10 25.0391 10.2107 25.4142 10.5858C25.7893 10.9609 26 11.4696 26 12ZM24 38H4C3.46957 38 2.96086 38.2107 2.58579 38.5858C2.21071 38.9609 2 39.4696 2 40V60C2 60.5304 2.21071 61.0391 2.58579 61.4142C2.96086 61.7893 3.46957 62 4 62H24C24.5304 62 25.0391 61.7893 25.4142 61.4142C25.7893 61.0391 26 60.5304 26 60V40C26 39.4696 25.7893 38.9609 25.4142 38.5858C25.0391 38.2107 24.5304 38 24 38ZM52 38H32C31.4696 38 30.9609 38.2107 30.5858 38.5858C30.2107 38.9609 30 39.4696 30 40V60C30 60.5304 30.2107 61.0391 30.5858 61.4142C30.9609 61.7893 31.4696 62 32 62H52C52.5304 62 53.0391 61.7893 53.4142 61.4142C53.7893 61.0391 54 60.5304 54 60V40C54 39.4696 53.7893 38.9609 53.4142 38.5858C53.0391 38.2107 52.5304 38 52 38Z" fill="#AA1439"/>
<path d="M47.414 2.44337L61.5567 16.586C61.7424 16.7717 61.8897 16.9921 61.9903 17.2347C62.0908 17.4773 62.1425 17.7374 62.1425 18C62.1425 18.2626 62.0908 18.5227 61.9903 18.7653C61.8897 19.0079 61.7424 19.2283 61.5567 19.414L47.4141 33.5567C47.2285 33.7424 47.008 33.8898 46.7654 33.9903C46.5228 34.0908 46.2627 34.1426 46.0001 34.1426C45.7374 34.1426 45.4774 34.0908 45.2347 33.9903C44.9921 33.8898 44.7717 33.7424 44.586 33.5567L30.4434 19.4141C30.2576 19.2285 30.1102 19.008 30.0097 18.7654C29.9092 18.5228 29.8574 18.2627 29.8574 18.0001C29.8574 17.7374 29.9092 17.4774 30.0097 17.2347C30.1102 16.9921 30.2576 16.7717 30.4434 16.586L44.5859 2.44337C44.7716 2.25761 44.992 2.11025 45.2346 2.00971C45.4773 1.90917 45.7373 1.85742 45.9999 1.85742C46.2626 1.85742 46.5226 1.90917 46.7653 2.00971C47.0079 2.11025 47.2283 2.25761 47.414 2.44337Z" fill="#AA1439" fill-opacity="0.5"/>
</svg>
