<svg width="78" height="75" viewBox="0 0 78 75" fill="none" xmlns="http://www.w3.org/2000/svg">
<path d="M68.1425 43.6159C67.4304 43.6145 66.7246 43.4827 66.06 43.2272C64.8966 43.8054 63.7006 44.3154 62.4779 44.7544C62.0236 45.7684 61.2843 46.6284 60.3501 47.2299C59.4159 47.8313 58.3269 48.1483 57.2159 48.1421H53.9115C52.798 48.1427 51.7083 47.8204 50.7743 47.2142C49.8403 46.608 49.1023 45.7439 48.6495 44.7267C47.4023 44.3399 46.1938 43.8379 45.0396 43.2272C43.9994 43.6287 42.8646 43.7178 41.7744 43.4835C40.6843 43.2492 39.6863 42.7017 38.9029 41.9082L36.5843 39.5757C35.7805 38.7931 35.2273 37.7893 34.995 36.6918C34.7626 35.5943 34.8615 34.4524 35.2792 33.4112C34.6814 32.26 34.1664 31.0676 33.7381 29.8431C32.723 29.3903 31.8619 28.6514 31.2603 27.7168C30.6586 26.7822 30.3424 25.6925 30.3504 24.581V21.2767C30.3462 20.1679 30.6624 19.0814 31.2609 18.1479C31.8594 17.2144 32.7148 16.4737 33.7242 16.0147C34.1746 14.7944 34.689 13.5988 35.2653 12.4327C34.8559 11.3956 34.7594 10.2613 34.9877 9.16992H4.41519C3.31078 9.17079 2.25185 9.6099 1.47092 10.3908C0.689982 11.1718 0.250871 12.2307 0.25 13.3351V55.1258C0.25086 56.2302 0.689968 57.2892 1.47091 58.0701C2.25184 58.851 3.31077 59.2901 4.41519 59.291H69.8919C70.9963 59.2901 72.0553 58.851 72.8362 58.0701C73.6171 57.2892 74.0563 56.2302 74.0571 55.1258V40.0755C72.4755 41.7072 70.6239 43.7724 68.1425 43.6159ZM14.5505 46.6565C14.7407 46.8528 14.8693 47.1005 14.9204 47.3691C14.9715 47.6376 14.9429 47.9152 14.838 48.1677C14.7332 48.4201 14.5568 48.6364 14.3305 48.7897C14.1043 48.9431 13.838 49.0268 13.5647 49.0307C13.3809 49.0305 13.199 48.9935 13.0297 48.922C12.8605 48.8504 12.7072 48.7458 12.579 48.6141L7.90006 43.9352C7.63992 43.6731 7.49394 43.3187 7.49394 42.9494C7.49394 42.5801 7.63992 42.2258 7.90006 41.9637L12.579 37.2848C12.8403 37.0319 13.1904 36.8915 13.5541 36.8939C13.9178 36.8962 14.2661 37.0411 14.5242 37.2974C14.7822 37.5536 14.9295 37.9009 14.9344 38.2645C14.9394 38.6282 14.8015 38.9793 14.5504 39.2424L10.8435 42.9495L14.5505 46.6565ZM24.2831 38.6038L21.9506 47.9755C21.8567 48.3287 21.6275 48.6306 21.3125 48.8159C20.9975 49.0012 20.6222 49.0549 20.2679 48.9654C19.9136 48.8759 19.6089 48.6504 19.4197 48.3378C19.2305 48.0252 19.1721 47.6506 19.2571 47.2952L21.5896 37.9235C21.6852 37.5722 21.9149 37.2725 22.2292 37.0888C22.5435 36.9052 22.9174 36.8522 23.2704 36.9414C23.6233 37.0305 23.9272 37.2547 24.1166 37.5656C24.306 37.8765 24.3658 38.2493 24.2831 38.6038ZM35.6402 43.9353L30.9613 48.6142C30.8331 48.7458 30.6798 48.8505 30.5105 48.9221C30.3412 48.9936 30.1593 49.0306 29.9755 49.0308C29.7022 49.0269 29.436 48.9431 29.2097 48.7898C28.9835 48.6364 28.807 48.4202 28.7022 48.1677C28.5974 47.9153 28.5688 47.6377 28.6199 47.3691C28.671 47.1006 28.7996 46.8529 28.9898 46.6566L32.6968 42.9496L28.9898 39.2426C28.861 39.1141 28.7589 38.9616 28.6892 38.7936C28.6195 38.6257 28.5836 38.4456 28.5836 38.2638C28.5836 38.0819 28.6195 37.9018 28.6892 37.7339C28.7589 37.5659 28.861 37.4134 28.9898 37.2849C29.2519 37.0248 29.6062 36.8788 29.9755 36.8788C30.3449 36.8788 30.6992 37.0248 30.9613 37.2849L35.6402 41.9638C35.9003 42.2259 36.0463 42.5803 36.0463 42.9495C36.0463 43.3188 35.9003 43.6732 35.6402 43.9353Z" fill="#AA1439"/>
<path d="M43.4014 66.8444C43.0393 65.2798 42.8991 63.672 42.9848 62.0684H31.3222C31.4068 63.672 31.2666 65.2796 30.9058 66.8444C16.0222 67.733 10.6769 71.6205 10.4271 71.8009C10.1436 72.024 9.95837 72.3489 9.91079 72.7064C9.8632 73.064 9.95702 73.426 10.1723 73.7155C10.3875 74.0049 10.7072 74.199 11.0634 74.2563C11.4195 74.3136 11.7839 74.2297 12.0791 74.0224C12.1486 73.9808 17.3828 70.3015 31.961 69.5657C35.1798 69.3993 39.1273 69.3994 42.3462 69.5657C56.9243 70.3015 62.1586 73.9808 62.2141 74.0224C62.5093 74.2332 62.8752 74.3201 63.2336 74.2646C63.592 74.2091 63.9145 74.0156 64.1321 73.7254C64.3497 73.4353 64.4451 73.0715 64.3981 72.7119C64.351 72.3523 64.1651 72.0254 63.8801 71.801C63.6303 71.6205 58.285 67.733 43.4014 66.8444Z" fill="#AA1439" fill-opacity="0.5"/>
<path d="M75.2648 18.2914C75.2252 18.2927 75.1863 18.2813 75.1538 18.2588C75.1213 18.2363 75.0969 18.2039 75.0843 18.1664C74.5049 16.1289 73.7282 14.1526 72.7653 12.2658C73.2515 11.6979 73.5047 10.967 73.4738 10.22C73.443 9.47297 73.1304 8.76536 72.599 8.23948L70.2665 5.90697C69.7412 5.37068 69.0319 5.05377 68.282 5.02026C67.532 4.98676 66.7973 5.23917 66.2263 5.72648C64.3367 4.76986 62.361 3.99361 60.3256 3.40803C60.2882 3.39531 60.2558 3.37087 60.2333 3.33834C60.2108 3.3058 60.1994 3.26689 60.2007 3.22736C60.1363 2.48036 59.7938 1.78477 59.241 1.27825C58.6882 0.771735 57.9654 0.491215 57.2156 0.492217H53.9112C53.1713 0.488899 52.4568 0.761686 51.9073 1.25724C51.3578 1.7528 51.0129 2.43548 50.9401 3.17182C50.9464 3.22099 50.9362 3.27088 50.9111 3.31361C50.8859 3.35635 50.8473 3.3895 50.8012 3.40785C48.803 3.89227 46.8921 4.68382 45.1366 5.75424C45.1013 5.77354 45.0609 5.78125 45.021 5.77627C44.9811 5.77128 44.9438 5.75386 44.9144 5.72647C44.3439 5.24011 43.6108 4.98706 42.8617 5.01795C42.1126 5.04884 41.4028 5.36139 40.8742 5.89308L38.5417 8.23946C38.0085 8.76362 37.6935 9.47021 37.66 10.2172C37.6265 10.9641 37.877 11.696 38.3612 12.2658C37.4024 14.1545 36.6261 16.1304 36.0429 18.1666C36.0319 18.2051 36.0079 18.2387 35.9749 18.2615C35.9419 18.2843 35.9021 18.2949 35.8621 18.2915C35.1151 18.3559 34.4195 18.6984 33.913 19.2512C33.4065 19.804 33.126 20.5268 33.127 21.2766V24.5808C33.1242 25.3297 33.4045 26.052 33.9117 26.603C34.4189 27.1539 35.1156 27.4929 35.8621 27.552C35.9028 27.5538 35.942 27.5681 35.9742 27.5929C36.0065 27.6178 36.0304 27.652 36.0426 27.6908C36.6267 29.7223 37.4032 31.6934 38.3615 33.5774C37.877 34.1497 37.6264 34.8838 37.6598 35.6329C37.6932 36.3821 38.0082 37.0909 38.5417 37.6178L40.8742 39.9503C41.4011 40.4839 42.1099 40.7989 42.859 40.8323C43.608 40.8658 44.3421 40.6153 44.9144 40.1308C44.944 40.1037 44.9813 40.0865 45.0211 40.0815C45.0609 40.0765 45.1013 40.0841 45.1366 40.1031C46.8921 41.1735 48.803 41.965 50.8012 42.4495C50.8867 42.461 50.9521 42.5825 50.9401 42.6855C51.0151 43.421 51.3606 44.1023 51.9096 44.5975C52.4586 45.0926 53.172 45.3662 53.9112 45.3651H57.2156C57.9654 45.3661 58.6882 45.0856 59.241 44.5791C59.7938 44.0725 60.1363 43.3769 60.2007 42.63C60.1993 42.5904 60.2107 42.5515 60.2333 42.519C60.2558 42.4865 60.2882 42.4622 60.3256 42.4495C62.3618 41.8659 64.3376 41.0893 66.2263 40.1305C66.7973 40.6179 67.532 40.8704 68.2819 40.837C69.0319 40.8035 69.7412 40.4866 70.2665 39.9503L72.599 37.6178C73.1307 37.0893 73.4433 36.3795 73.4742 35.6304C73.5051 34.8813 73.252 34.1482 72.7656 33.5776C73.7243 31.6937 74.5006 29.7225 75.0841 27.6908C75.0983 27.6531 75.1227 27.6202 75.1547 27.5956C75.1866 27.5711 75.2248 27.556 75.2648 27.552C76.0123 27.4953 76.7104 27.157 77.218 26.6055C77.7257 26.054 78.0052 25.3304 77.9999 24.5808V21.2765C78.0034 20.526 77.7237 19.8018 77.2167 19.2485C76.7097 18.6952 76.0127 18.3534 75.2648 18.2914ZM55.5634 35.4242C52.2508 35.4196 49.0751 34.1017 46.7327 31.7593C44.3904 29.4169 43.0724 26.2413 43.0679 22.9286C43.7453 6.35702 67.384 6.36177 68.059 22.9287C68.0544 26.2413 66.7365 29.417 64.3941 31.7593C62.0517 34.1017 58.876 35.4196 55.5634 35.4242Z" fill="#AA1439" fill-opacity="0.5"/>
</svg>
