<svg width="512" height="513" viewBox="0 0 512 513" fill="none" xmlns="http://www.w3.org/2000/svg">
<path fill-rule="evenodd" clip-rule="evenodd" d="M371.738 468.432H241.039C251.47 453.671 260.12 415.638 256.373 386.297H355.483C351.737 415.638 361.311 453.671 371.738 468.432Z" fill="#CAD0D7"/>
<path fill-rule="evenodd" clip-rule="evenodd" d="M217.747 463.356H395.029C404.144 463.356 411.601 470.813 411.601 479.928C411.601 489.043 404.144 496.5 395.029 496.5H217.747C208.632 496.5 201.175 489.043 201.175 479.928C201.175 470.814 208.632 463.356 217.747 463.356Z" fill="#E4E8EB"/>
<path fill-rule="evenodd" clip-rule="evenodd" d="M476.002 124.934C487.045 124.934 496 133.89 496 144.937V369.848C496 384.884 483.812 397.073 468.775 397.073H143.995C128.958 397.073 116.77 384.885 116.77 369.848V152.159C116.77 137.122 128.958 124.934 143.995 124.934H476.002Z" fill="#CAD0D7"/>
<path fill-rule="evenodd" clip-rule="evenodd" d="M132.572 327.118H480.2C480.2 266.391 480.2 205.664 480.2 144.937C480.2 142.614 478.327 140.735 476.003 140.735H143.996C137.681 140.735 132.572 145.844 132.572 152.159V327.118Z" fill="#38A8D2"/>
<path fill-rule="evenodd" clip-rule="evenodd" d="M496.001 342.919V369.848C496.001 384.884 483.813 397.073 468.776 397.073H143.996C128.959 397.073 116.771 384.885 116.771 369.848V342.919H496.001Z" fill="#E4E8EB"/>
<path fill-rule="evenodd" clip-rule="evenodd" d="M291.418 376.996C287.552 376.996 284.418 373.862 284.418 369.996C284.418 366.13 287.552 362.996 291.418 362.996H321.353C325.219 362.996 328.353 366.13 328.353 369.996C328.353 373.862 325.219 376.996 321.353 376.996H291.418Z" fill="#CAD0D7"/>
<path fill-rule="evenodd" clip-rule="evenodd" d="M210.926 133.969C191.081 133.969 181.124 158.011 195.156 172.043C197.741 174.628 197.741 178.82 195.156 181.405L180.904 195.656C178.319 198.241 174.127 198.241 171.542 195.656C157.51 181.624 133.468 191.581 133.468 211.426C133.468 215.083 130.504 218.045 126.849 218.045H106.695C103.04 218.045 100.076 215.083 100.076 211.426C100.076 191.557 76.052 181.606 62.002 195.656C59.417 198.241 55.225 198.241 52.641 195.656L38.39 181.405C35.805 178.82 35.805 174.628 38.39 172.043C52.422 158.011 42.465 133.969 22.619 133.969C18.962 133.969 15.999 131.004 15.999 127.35V107.196C15.999 103.541 18.961 100.577 22.619 100.577C42.464 100.577 52.422 76.535 38.39 62.503C35.805 59.918 35.805 55.726 38.39 53.141L52.641 38.89C55.225 36.305 59.418 36.305 62.002 38.89C76.034 52.922 100.076 42.964 100.076 23.119C100.076 19.462 103.04 16.499 106.695 16.499H126.849C130.504 16.499 133.468 19.461 133.468 23.119C133.468 42.964 157.51 52.922 171.542 38.89C174.127 36.305 178.319 36.305 180.904 38.89L195.156 53.141C197.741 55.725 197.741 59.918 195.156 62.503C181.124 76.534 191.081 100.577 210.926 100.577C214.583 100.577 217.545 103.541 217.545 107.196V127.35C217.546 131.005 214.584 133.969 210.926 133.969Z" fill="#FDCD56"/>
<path d="M116.773 166.519C143.971 166.519 166.019 144.471 166.019 117.273C166.019 90.0752 143.971 68.027 116.773 68.027C89.575 68.027 67.5269 90.0752 67.5269 117.273C67.5269 144.471 89.575 166.519 116.773 166.519Z" fill="#F4F6F8"/>
<path fill-rule="evenodd" clip-rule="evenodd" d="M176.692 315.641C164.062 315.641 157.726 330.941 166.656 339.871C168.301 341.516 168.301 344.184 166.656 345.829L157.587 354.898C155.942 356.543 153.274 356.543 151.629 354.898C142.699 345.968 127.399 352.305 127.399 364.934C127.399 367.261 125.512 369.147 123.187 369.147H110.36C108.034 369.147 106.147 367.262 106.147 364.934C106.147 352.289 90.8582 345.957 81.9172 354.898C80.2722 356.543 77.6042 356.543 75.9592 354.898L66.8892 345.829C65.2442 344.184 65.2442 341.516 66.8892 339.871C75.8192 330.941 69.4822 315.641 56.8522 315.641C54.5252 315.641 52.6392 313.754 52.6392 311.428V298.602C52.6392 296.276 54.5242 294.389 56.8522 294.389C69.4822 294.389 75.8182 279.088 66.8892 270.159C65.2442 268.514 65.2442 265.846 66.8892 264.201L75.9592 255.131C77.6042 253.486 80.2722 253.486 81.9172 255.131C90.8472 264.061 106.147 257.724 106.147 245.094C106.147 242.767 108.033 240.882 110.36 240.882H123.186C125.512 240.882 127.398 242.767 127.398 245.094C127.398 257.724 142.698 264.06 151.628 255.131C153.273 253.486 155.941 253.486 157.586 255.131L166.655 264.201C168.3 265.846 168.3 268.514 166.655 270.159C157.725 279.089 164.062 294.389 176.691 294.389C179.018 294.389 180.903 296.276 180.903 298.602V311.428C180.905 313.754 179.019 315.641 176.692 315.641Z" fill="#636C77"/>
<path d="M116.773 336.356C134.082 336.356 148.113 322.325 148.113 305.016C148.113 287.707 134.082 273.676 116.773 273.676C99.4645 273.676 85.4331 287.707 85.4331 305.016C85.4331 322.325 99.4645 336.356 116.773 336.356Z" fill="#F4F6F8"/>
<path fill-rule="evenodd" clip-rule="evenodd" d="M324.466 160.452H364.46C366.112 160.452 367.46 161.8 367.46 163.452V188.466C367.46 190.118 366.112 191.466 364.46 191.466H324.466C322.814 191.466 321.466 190.118 321.466 188.466V163.452C321.466 161.8 322.814 160.452 324.466 160.452Z" fill="#C6EA94"/>
<path fill-rule="evenodd" clip-rule="evenodd" d="M410.691 160.452H450.685C452.337 160.452 453.685 161.8 453.685 163.452V188.466C453.685 190.118 452.337 191.466 450.685 191.466H410.691C409.039 191.466 407.691 190.118 407.691 188.466V163.452C407.691 161.8 409.039 160.452 410.691 160.452Z" fill="#66D4F1"/>
<path fill-rule="evenodd" clip-rule="evenodd" d="M238.241 160.452H278.235C279.887 160.452 281.235 161.8 281.235 163.452V188.466C281.235 190.118 279.887 191.466 278.235 191.466H238.241C236.589 191.466 235.241 190.118 235.241 188.466V163.452C235.241 161.8 236.589 160.452 238.241 160.452Z" fill="#F76C82"/>
<path fill-rule="evenodd" clip-rule="evenodd" d="M324.466 219.773H364.46C366.112 219.773 367.46 221.121 367.46 222.773V247.787C367.46 249.439 366.112 250.787 364.46 250.787H324.466C322.814 250.787 321.466 249.439 321.466 247.787V222.773C321.466 221.12 322.814 219.773 324.466 219.773Z" fill="#B3A4EE"/>
<path fill-rule="evenodd" clip-rule="evenodd" d="M410.691 219.773H450.685C452.337 219.773 453.685 221.121 453.685 222.773V247.787C453.685 249.439 452.337 250.787 450.685 250.787H410.691C409.039 250.787 407.691 249.439 407.691 247.787V222.773C407.691 221.12 409.039 219.773 410.691 219.773Z" fill="#FDCD56"/>
<path fill-rule="evenodd" clip-rule="evenodd" d="M238.241 219.773H278.235C279.887 219.773 281.235 221.121 281.235 222.773V247.787C281.235 249.439 279.887 250.787 278.235 250.787H238.241C236.589 250.787 235.241 249.439 235.241 247.787V222.773C235.241 221.12 236.589 219.773 238.241 219.773Z" fill="#A4D4FF"/>
<path fill-rule="evenodd" clip-rule="evenodd" d="M235.241 286.094C231.375 286.094 228.241 282.96 228.241 279.094C228.241 275.228 231.375 272.094 235.241 272.094H453.685C457.551 272.094 460.685 275.228 460.685 279.094C460.685 282.96 457.551 286.094 453.685 286.094H235.241ZM235.241 314.402C231.375 314.402 228.241 311.268 228.241 307.402C228.241 303.536 231.375 300.402 235.241 300.402H453.685C457.551 300.402 460.685 303.536 460.685 307.402C460.685 311.268 457.551 314.402 453.685 314.402H235.241Z" fill="#C7E0EC"/>
</svg>
